# Blender 4.5.4 LTS
# www.blender.org
mtllib Truck.mtl
o Monster_Truck
v -0.265695 -0.036937 0.307428
v -0.265695 -0.027644 -0.334697
v -0.265695 -0.072677 0.372866
v -0.439999 -0.313437 0.555065
v -0.265695 -0.190573 0.407128
v -0.265695 -0.072677 -0.271259
v -0.265695 -0.190572 -0.236996
v -0.439999 -0.313437 -0.231599
v -0.435659 0.210968 0.552427
v -0.415819 0.208036 -0.246476
v -0.265695 -0.190573 0.197728
v -0.000000 0.186565 -0.251599
v -0.265695 -0.072677 0.231991
v -0.000000 -0.313437 -0.115913
v -0.265695 -0.190572 -0.436397
v -0.334523 0.465094 -0.137432
v -0.265695 -0.072676 -0.402134
v -0.000000 0.486566 -0.132309
v -0.551327 0.289622 -0.227197
v -0.551327 0.193938 -0.227197
v -0.562767 0.289622 -0.237681
v -0.562767 0.193938 -0.237681
v -0.453844 0.289622 -0.262025
v -0.453844 0.193938 -0.262025
v -0.453844 0.289622 -0.250082
v -0.453844 0.193938 -0.250082
v -0.492749 0.193938 -0.264502
v -0.492749 0.289622 -0.238961
v -0.492749 0.289622 -0.264502
v -0.492749 0.193938 -0.238961
v -0.450145 0.143937 -0.238961
v -0.411239 0.143937 -0.238961
v -0.411239 0.143937 -0.250904
v -0.450145 0.143937 -0.250904
v -0.439999 0.061564 -0.191599
v -0.220000 0.210533 0.552349
v -0.220000 0.208036 -0.246476
v -0.138597 -0.313437 -0.272300
v -0.175532 0.465094 -0.137432
v -0.213550 -0.029158 -0.527666
v -0.265695 -0.313437 -0.236996
v -0.439999 -0.313437 -0.436397
v -0.439999 -0.313437 -0.236996
v -0.265695 -0.313437 -0.436397
v -0.439999 -0.072676 -0.402134
v -0.439999 -0.027644 -0.334697
v -0.439999 -0.190572 -0.236996
v -0.439999 -0.072677 -0.271259
v -0.439999 -0.190572 -0.436397
v -0.439999 -0.313437 0.197728
v -0.439999 -0.313437 0.407128
v -0.265695 -0.313437 0.407128
v -0.265695 -0.313437 0.197728
v -0.439999 -0.036937 0.307428
v -0.439999 -0.190573 0.407128
v -0.439999 -0.072677 0.372866
v -0.439999 -0.190573 0.197728
v -0.439999 -0.072677 0.231991
v -0.415347 0.112622 -0.418020
v -0.000000 0.113661 -0.474132
v -0.224559 0.113658 -0.474130
v -0.387280 -0.241164 -0.510575
v -0.416942 0.030163 -0.468429
v -0.439999 0.061563 0.555065
v -0.220000 0.166168 0.555221
v -0.000000 -0.297836 -0.535600
v -0.272720 -0.241164 -0.520226
v -0.000000 -0.035650 -0.527424
v -0.000000 -0.313437 0.375107
v -0.137189 -0.313437 0.375107
v -0.220000 0.107655 0.555221
v -0.000000 0.061563 0.555221
v -0.439999 -0.313437 0.048953
v -0.439999 0.166168 0.515269
v -0.351065 0.486566 0.048953
v -0.439999 0.065298 0.515269
v -0.137189 -0.313437 0.229067
v -0.175532 0.486566 0.048953
v -0.000000 -0.313437 0.229067
v -0.000000 0.486566 0.048953
v -0.000000 0.208036 -0.246476
v -0.220000 0.186565 -0.251599
v -0.351065 0.486566 -0.132309
v -0.175532 0.486566 -0.132309
v -0.439999 0.186565 -0.251599
v -0.000000 0.465094 -0.137432
v -0.000000 0.210533 0.552349
v -0.435659 0.210969 0.058953
v -0.355406 0.462161 0.058953
v -0.435659 0.210969 -0.234205
v -0.435659 0.210969 0.038953
v -0.355406 0.462161 0.038953
v -0.355406 0.462161 -0.126560
v -0.000000 0.203427 0.542762
v -0.000000 0.195229 -0.237888
v -0.000000 0.452288 -0.128843
v -0.220000 0.203427 0.542762
v -0.220000 0.195229 -0.237888
v -0.175532 0.452288 -0.128843
v -0.334523 0.452288 -0.128843
v -0.415819 0.195229 -0.237888
v -0.415711 0.204485 0.542594
v -0.416135 0.205543 0.058953
v -0.416135 0.205543 0.038953
v -0.416135 0.205543 -0.234205
v -0.335882 0.456735 -0.126560
v -0.335882 0.456735 0.038953
v -0.439999 0.109219 -0.010551
v -0.439999 0.138910 -0.010551
v -0.439999 0.138909 0.022820
v -0.439999 0.109219 0.022820
v -0.455393 0.109219 0.022820
v -0.455393 0.138909 0.022820
v -0.455393 0.138910 -0.010551
v -0.455393 0.109219 -0.010551
v -0.490357 0.493047 0.074963
v -0.473816 0.493143 0.072276
v -0.500581 0.492794 0.081998
v -0.500581 0.492483 0.090694
v -0.490357 0.492230 0.097729
v -0.473816 0.492134 0.100416
v -0.457275 0.492230 0.097729
v -0.447051 0.492483 0.090694
v -0.447051 0.492794 0.081998
v -0.457275 0.493047 0.074963
v -0.484111 0.605199 0.079527
v -0.473816 0.606670 0.077917
v -0.490473 0.601348 0.083741
v -0.490473 0.596588 0.088951
v -0.484111 0.592737 0.093165
v -0.473816 0.591265 0.094775
v -0.463521 0.592737 0.093165
v -0.457159 0.596588 0.088951
v -0.457159 0.601348 0.083741
v -0.463521 0.605199 0.079527
v -0.490357 -0.264369 0.073265
v -0.473816 -0.264273 0.070578
v -0.500581 -0.264622 0.080300
v -0.500581 -0.264934 0.088996
v -0.490357 -0.265185 0.096031
v -0.473816 -0.265282 0.098718
v -0.457275 -0.265185 0.096031
v -0.447051 -0.264934 0.088996
v -0.447051 -0.264622 0.080300
v -0.457275 -0.264369 0.073265
v -0.463521 0.534375 0.079262
v -0.457159 0.534218 0.083640
v -0.457159 0.534024 0.089052
v -0.463521 0.533867 0.093430
v -0.473816 0.533807 0.095103
v -0.484111 0.533867 0.093430
v -0.490473 0.534024 0.089052
v -0.490473 0.534218 0.083640
v -0.473816 0.534435 0.077589
v -0.484111 0.534375 0.079262
v -0.439999 0.136565 -0.401801
v -0.220000 0.136565 -0.465957
v -0.387280 -0.076836 -0.510575
v -0.272719 -0.110163 -0.520226
v -0.000000 0.136564 -0.465957
v -0.000000 -0.058557 -0.535600
v -0.223567 0.107450 -0.471683
v -0.212559 -0.035365 -0.525218
v -0.000000 0.107454 -0.471684
v -0.000000 -0.041857 -0.524976
v -0.414357 0.106415 -0.415572
v -0.415951 0.023956 -0.465982
v -0.439999 -0.313437 -0.471443
v -0.439999 0.011564 -0.471443
v -0.207520 -0.297836 -0.535600
v -0.220000 -0.052436 -0.535600
v -0.382470 -0.241164 -0.499325
v -0.382470 -0.076836 -0.499325
v -0.256686 -0.241164 -0.506481
v -0.256686 -0.110163 -0.506481
v -0.439999 0.166168 0.555065
v -0.439999 0.065298 0.555065
v -0.220000 0.061563 0.555221
v -0.000000 0.166168 0.555221
v -0.000000 0.109082 0.555221
v -0.439999 0.186565 0.048953
v -0.439999 0.061564 0.048953
v -0.452857 0.166168 0.561484
v -0.452857 0.065298 0.561484
v -0.000000 0.166168 0.561650
v -0.000000 0.109082 0.561650
v -0.220009 0.166168 0.561650
v -0.220009 0.107655 0.561650
v -0.452857 0.166168 0.515269
v -0.452857 0.065298 0.515269
v -0.416135 0.205542 0.393655
v -0.435659 0.210968 0.393599
v -0.456403 -0.310500 0.455065
v -0.456403 0.031564 -0.241599
v -0.536404 -0.313437 -0.236996
v -0.536404 -0.072676 -0.402134
v -0.536404 -0.027644 -0.334697
v -0.536404 -0.190572 -0.236996
v -0.536404 -0.072677 -0.271259
v -0.536404 -0.190572 -0.436397
v -0.536404 -0.313437 0.197728
v -0.536404 -0.039135 0.307429
v -0.536404 -0.190573 0.407128
v -0.536404 -0.072677 0.372866
v -0.536404 -0.190573 0.197728
v -0.536404 -0.072677 0.231991
v -0.456403 0.061564 0.395065
v -0.456403 -0.313437 -0.471443
v -0.456403 0.011564 -0.431443
v -0.456403 -0.178437 0.140953
v -0.456403 0.111564 -0.329521
v -0.456403 -0.100936 -0.471443
v -0.456403 0.106564 0.308009
v -0.456403 -0.150937 0.455065
v -0.456403 0.034064 0.203481
v -0.456403 -0.183436 -0.189322
v -0.328364 -0.310500 0.455065
v -0.376404 -0.313437 -0.231599
v -0.376404 0.031564 -0.241599
v -0.376404 -0.313437 -0.436397
v -0.376404 -0.313437 -0.236996
v -0.376404 -0.072676 -0.402134
v -0.376404 -0.027644 -0.334697
v -0.376404 -0.190572 -0.236996
v -0.376404 -0.072677 -0.271259
v -0.376404 -0.190572 -0.436397
v -0.328364 -0.313437 0.197728
v -0.328364 -0.310500 0.407128
v -0.328364 -0.039135 0.307428
v -0.328364 -0.190573 0.407128
v -0.328364 -0.072677 0.372866
v -0.328364 -0.190573 0.197728
v -0.328364 -0.072677 0.231991
v -0.328364 0.061564 0.395065
v -0.376404 -0.313437 -0.471443
v -0.376404 0.011564 -0.431443
v -0.328364 -0.178437 0.140953
v -0.376404 0.111564 -0.329521
v -0.376404 -0.100936 -0.471443
v -0.328364 0.106564 0.308009
v -0.328364 -0.150937 0.455065
v -0.328364 0.034064 0.203481
v -0.376404 -0.183436 -0.189322
v -0.000000 0.456735 0.058953
v -0.000000 0.205235 0.058953
v -0.000000 -0.056477 0.542761
v -0.220000 -0.056477 0.542761
v -0.415711 -0.055420 0.542594
v -0.416135 -0.004362 0.303655
v -0.339801 0.436921 0.058953
v -0.020000 0.432039 0.058953
v -0.020000 0.230249 0.058953
v -0.390584 0.230524 0.058953
v -0.020000 0.432039 0.048953
v -0.020000 0.230249 0.048953
v -0.339801 0.436921 0.048953
v -0.390584 0.230524 0.048953
v -0.000000 -0.313437 -0.535600
v -0.138597 -0.313437 -0.405859
v -0.207520 -0.068387 -0.535600
v -0.000000 -0.074161 -0.535600
v -0.000000 -0.297836 -0.522152
v -0.207520 -0.297836 -0.522152
v -0.207520 -0.068387 -0.522152
v -0.000000 -0.074161 -0.522152
v -0.000000 -0.313437 -0.272300
v -0.185351 -0.313437 -0.115913
v -0.220000 -0.313437 -0.535600
v -0.000000 -0.313437 -0.405859
v -0.000000 -0.313437 0.555221
v -0.220000 -0.313437 0.555221
v -0.202676 -0.313437 0.080291
v -0.000000 -0.313437 0.048953
v -0.000000 -0.820681 -0.405859
v -0.000000 -0.820681 -0.272300
v -0.000000 -0.820682 0.375107
v -0.000000 -0.820682 0.229067
v -0.138597 -0.762979 -0.308491
v -0.138597 -0.762979 -0.369669
v -0.137189 -0.762980 0.337045
v -0.137189 -0.762980 0.267129
v -0.000000 -0.567059 -0.272300
v -0.000000 -0.567059 -0.405859
v -0.281397 -0.624761 -0.348849
v -0.281397 -0.624761 -0.329311
v -0.281037 -0.624761 0.287950
v -0.281037 -0.624761 0.316225
v -0.000000 -0.567060 0.375107
v -0.000000 -0.567060 0.229067
v -0.138597 -0.820681 -0.405859
v -0.138597 -0.820681 -0.272300
v -0.137189 -0.820682 0.375107
v -0.137189 -0.820682 0.229067
v -0.137189 -0.567060 0.229067
v -0.138597 -0.567059 -0.405859
v -0.138597 -0.567059 -0.272300
v -0.137189 -0.567060 0.375107
v -0.576511 -0.762979 -0.369669
v -0.576511 -0.762979 -0.308491
v -0.493664 -0.762980 0.337045
v -0.493664 -0.762980 0.267129
v -0.350865 -0.624761 0.287950
v -0.351224 -0.624761 -0.348849
v -0.351224 -0.624761 -0.329311
v -0.350865 -0.624761 0.316225
v -0.138597 -0.624761 -0.369669
v -0.138597 -0.624761 -0.308491
v -0.137189 -0.624761 0.267129
v -0.137189 -0.624761 0.337045
v -0.576511 -0.624761 -0.369669
v -0.576511 -0.624761 -0.308491
v -0.493664 -0.624761 0.267129
v -0.493664 -0.624761 0.337045
v -0.281397 -0.057059 -0.348849
v -0.281397 -0.057059 -0.329311
v -0.281037 -0.057060 0.287950
v -0.281037 -0.057060 0.316225
v -0.351224 -0.057059 -0.348849
v -0.351224 -0.057059 -0.329311
v -0.350865 -0.057060 0.287950
v -0.350865 -0.057060 0.316225
v -0.000000 -0.313437 -0.231599
v -0.220000 -0.313437 -0.231599
v -0.220000 -0.313437 0.048953
v -0.000000 -0.313437 0.080291
v -0.000000 -0.657418 0.080291
v -0.000000 -0.657418 -0.115913
v -0.185351 -0.657418 -0.115913
v -0.202676 -0.657418 0.080291
v -0.537272 -0.566488 -0.349791
v -0.537272 -0.615333 -0.349791
v -0.585260 -0.566488 -0.324429
v -0.585260 -0.615333 -0.324429
v -0.000000 -0.566487 -0.093731
v -0.000000 -0.615333 -0.093731
v -0.015350 -0.566487 -0.068370
v -0.015350 -0.615333 -0.068370
v 0.005670 -0.566488 0.069546
v 0.005670 -0.615333 0.069546
v -0.043334 -0.566488 0.044674
v -0.043334 -0.615333 0.044674
v -0.525033 -0.566489 0.329007
v -0.525033 -0.615333 0.329007
v -0.575185 -0.566489 0.320445
v -0.575185 -0.615333 0.320445
v -0.389507 0.555544 0.098953
v -0.346628 0.555236 0.098953
v -0.416135 -0.004362 0.058953
v -0.000000 -0.004670 0.058953
v -0.389507 0.504553 0.077335
v -0.346628 0.504245 0.077335
v -0.346628 0.504245 0.098953
v -0.389507 0.504553 0.098953
v -0.346628 0.555236 0.077335
v -0.389507 0.555544 0.077335
v -0.346628 -0.004670 0.077335
v -0.389508 -0.004362 0.077335
v -0.346628 -0.004670 0.098953
v -0.389508 -0.004362 0.098953
v -0.000000 0.555236 0.098953
v -0.000000 0.504245 0.077335
v -0.000000 0.504245 0.098953
v -0.000000 0.555236 0.077335
v -0.346628 -0.133730 0.499718
v -0.346628 -0.106651 0.517001
v -0.389507 -0.133566 0.499823
v -0.389507 -0.106487 0.517105
v -0.346628 0.159293 0.417622
v -0.346628 0.120256 0.404501
v -0.389507 0.120492 0.404580
v -0.389507 0.159529 0.417701
v -0.484111 0.682804 0.093902
v -0.473816 0.686833 0.092782
v -0.490473 0.672259 0.096833
v -0.490473 0.659223 0.100457
v -0.484111 0.648677 0.103388
v -0.473816 0.644649 0.104508
v -0.463521 0.648677 0.103388
v -0.457159 0.659223 0.100457
v -0.457159 0.672259 0.096833
v -0.463521 0.682804 0.093902
v -0.484111 0.716950 0.115839
v -0.473816 0.721868 0.115134
v -0.490473 0.704073 0.117682
v -0.490473 0.688157 0.119962
v -0.484111 0.675279 0.121805
v -0.473816 0.670361 0.122510
v -0.463521 0.675279 0.121805
v -0.457159 0.688157 0.119962
v -0.457159 0.704073 0.117682
v -0.463521 0.716950 0.115839
v -0.551327 0.289622 -0.227197
v -0.551327 0.193938 -0.227197
v -0.562767 0.289622 -0.237681
v -0.562767 0.193938 -0.237681
v 0.265695 -0.036938 0.307428
v 0.265695 -0.027644 -0.334697
v 0.265695 -0.072677 0.372866
v 0.439999 -0.313437 0.555065
v 0.265695 -0.190573 0.407128
v 0.265695 -0.072677 -0.271259
v 0.265695 -0.190572 -0.236996
v 0.439999 -0.313437 -0.231599
v 0.435659 0.210968 0.552427
v 0.415819 0.208036 -0.246476
v 0.265695 -0.190573 0.197728
v 0.265695 -0.072677 0.231991
v 0.265695 -0.190572 -0.436397
v 0.334523 0.465094 -0.137432
v 0.265695 -0.072676 -0.402134
v 0.551327 0.289622 -0.227197
v 0.551327 0.193938 -0.227197
v 0.562767 0.289622 -0.237681
v 0.562767 0.193938 -0.237681
v 0.453843 0.289622 -0.262025
v 0.453843 0.193938 -0.262025
v 0.453843 0.289622 -0.250082
v 0.453843 0.193938 -0.250082
v 0.492749 0.193938 -0.264503
v 0.492749 0.289622 -0.238961
v 0.492749 0.289622 -0.264503
v 0.492749 0.193938 -0.238961
v 0.450145 0.143937 -0.238961
v 0.411239 0.143937 -0.238961
v 0.411239 0.143937 -0.250904
v 0.450145 0.143937 -0.250904
v 0.439999 0.061564 -0.191599
v 0.220000 0.210533 0.552349
v 0.220000 0.208036 -0.246476
v 0.138596 -0.313437 -0.272300
v 0.175532 0.465094 -0.137432
v 0.213549 -0.029158 -0.527666
v 0.265695 -0.313437 -0.236996
v 0.439999 -0.313437 -0.436397
v 0.439999 -0.313437 -0.236996
v 0.265695 -0.313437 -0.436397
v 0.439999 -0.072676 -0.402134
v 0.439999 -0.027644 -0.334697
v 0.439999 -0.190572 -0.236996
v 0.439999 -0.072677 -0.271259
v 0.439999 -0.190572 -0.436397
v 0.439999 -0.313437 0.197728
v 0.439999 -0.313437 0.407128
v 0.265695 -0.313437 0.407128
v 0.265695 -0.313437 0.197728
v 0.439999 -0.036938 0.307428
v 0.439999 -0.190573 0.407128
v 0.439999 -0.072677 0.372866
v 0.439999 -0.190573 0.197728
v 0.439999 -0.072677 0.231991
v 0.415347 0.112622 -0.418020
v 0.224558 0.113658 -0.474130
v 0.387280 -0.241164 -0.510575
v 0.416942 0.030163 -0.468430
v 0.439999 0.061563 0.555065
v 0.220000 0.166168 0.555221
v 0.272719 -0.241164 -0.520226
v 0.137189 -0.313437 0.375107
v 0.220000 0.107655 0.555221
v 0.439999 -0.313437 0.048953
v 0.439999 0.166168 0.515269
v 0.351065 0.486566 0.048953
v 0.439999 0.065298 0.515269
v 0.137189 -0.313437 0.229067
v 0.175532 0.486566 0.048953
v 0.220000 0.186565 -0.251599
v 0.351065 0.486566 -0.132309
v 0.175532 0.486566 -0.132309
v 0.439999 0.186565 -0.251599
v 0.435659 0.210969 0.058953
v 0.355405 0.462161 0.058953
v 0.435659 0.210969 -0.234205
v 0.435659 0.210969 0.038953
v 0.355405 0.462161 0.038953
v 0.355405 0.462161 -0.126560
v 0.220000 0.203427 0.542762
v 0.220000 0.195229 -0.237888
v 0.175532 0.452288 -0.128844
v 0.334523 0.452288 -0.128844
v 0.415819 0.195229 -0.237888
v 0.415711 0.204485 0.542594
v 0.416135 0.205543 0.058953
v 0.416135 0.205543 0.038953
v 0.416135 0.205543 -0.234205
v 0.335882 0.456735 -0.126560
v 0.335882 0.456735 0.038953
v 0.439999 0.109219 -0.010551
v 0.439999 0.138909 -0.010551
v 0.439999 0.138909 0.022820
v 0.439999 0.109219 0.022820
v 0.455393 0.109219 0.022820
v 0.455393 0.138909 0.022820
v 0.455393 0.138909 -0.010551
v 0.455393 0.109219 -0.010551
v 0.490357 0.493046 0.074963
v 0.473816 0.493142 0.072276
v 0.500580 0.492794 0.081998
v 0.500580 0.492482 0.090694
v 0.490357 0.492230 0.097729
v 0.473816 0.492133 0.100416
v 0.457274 0.492230 0.097729
v 0.447051 0.492482 0.090694
v 0.447051 0.492794 0.081998
v 0.457274 0.493046 0.074963
v 0.484111 0.605199 0.079527
v 0.473816 0.606670 0.077917
v 0.490473 0.601348 0.083741
v 0.490473 0.596588 0.088951
v 0.484111 0.592737 0.093165
v 0.473816 0.591265 0.094775
v 0.463521 0.592737 0.093165
v 0.457159 0.596588 0.088951
v 0.457159 0.601348 0.083741
v 0.463521 0.605199 0.079527
v 0.490357 -0.264369 0.073265
v 0.473816 -0.264273 0.070577
v 0.500580 -0.264622 0.080300
v 0.500580 -0.264934 0.088996
v 0.490357 -0.265185 0.096031
v 0.473816 -0.265282 0.098718
v 0.457274 -0.265185 0.096031
v 0.447051 -0.264934 0.088996
v 0.447051 -0.264622 0.080300
v 0.457274 -0.264369 0.073265
v 0.463521 0.534375 0.079262
v 0.457159 0.534218 0.083640
v 0.457159 0.534024 0.089052
v 0.463521 0.533867 0.093430
v 0.473816 0.533807 0.095103
v 0.484111 0.533867 0.093430
v 0.490473 0.534024 0.089052
v 0.490473 0.534218 0.083640
v 0.473816 0.534435 0.077589
v 0.484111 0.534375 0.079262
v 0.439999 0.136564 -0.401801
v 0.220000 0.136564 -0.465957
v 0.387280 -0.076836 -0.510575
v 0.272719 -0.110163 -0.520226
v 0.223567 0.107450 -0.471683
v 0.212558 -0.035365 -0.525218
v 0.414356 0.106415 -0.415572
v 0.415951 0.023956 -0.465982
v 0.439999 -0.313437 -0.471443
v 0.439999 0.011564 -0.471443
v 0.207519 -0.297836 -0.535600
v 0.220000 -0.052436 -0.535600
v 0.382469 -0.241164 -0.499325
v 0.382469 -0.076836 -0.499325
v 0.256686 -0.241164 -0.506481
v 0.256686 -0.110163 -0.506481
v 0.439999 0.166168 0.555065
v 0.439999 0.065298 0.555065
v 0.220000 0.061563 0.555221
v 0.439999 0.186565 0.048953
v 0.439999 0.061564 0.048953
v 0.452857 0.166168 0.561484
v 0.452857 0.065298 0.561484
v 0.220009 0.166168 0.561650
v 0.220009 0.107655 0.561650
v 0.452857 0.166168 0.515269
v 0.452857 0.065298 0.515269
v 0.416135 0.205542 0.393655
v 0.435659 0.210968 0.393598
v 0.456404 -0.310500 0.455065
v 0.456404 0.031564 -0.241599
v 0.536404 -0.313437 -0.236996
v 0.536404 -0.072676 -0.402134
v 0.536404 -0.027644 -0.334697
v 0.536404 -0.190572 -0.236996
v 0.536404 -0.072677 -0.271259
v 0.536404 -0.190572 -0.436397
v 0.536404 -0.313437 0.197728
v 0.536404 -0.039135 0.307428
v 0.536404 -0.190573 0.407128
v 0.536404 -0.072677 0.372866
v 0.536404 -0.190573 0.197728
v 0.536404 -0.072677 0.231991
v 0.456404 0.061564 0.395065
v 0.456404 -0.313437 -0.471443
v 0.456404 0.011564 -0.431443
v 0.456404 -0.178437 0.140953
v 0.456404 0.111564 -0.329521
v 0.456404 -0.100936 -0.471443
v 0.456404 0.106564 0.308009
v 0.456404 -0.150937 0.455065
v 0.456404 0.034064 0.203481
v 0.456404 -0.183436 -0.189322
v 0.328363 -0.310500 0.455065
v 0.376403 -0.313437 -0.231599
v 0.376403 0.031564 -0.241599
v 0.376403 -0.313437 -0.436397
v 0.376403 -0.313437 -0.236996
v 0.376403 -0.072676 -0.402134
v 0.376403 -0.027644 -0.334697
v 0.376403 -0.190572 -0.236996
v 0.376403 -0.072677 -0.271259
v 0.376403 -0.190572 -0.436397
v 0.328363 -0.313437 0.197728
v 0.328363 -0.310500 0.407128
v 0.328363 -0.039135 0.307428
v 0.328363 -0.190573 0.407128
v 0.328363 -0.072677 0.372866
v 0.328363 -0.190573 0.197728
v 0.328363 -0.072677 0.231991
v 0.328363 0.061564 0.395065
v 0.376403 -0.313437 -0.471443
v 0.376403 0.011564 -0.431443
v 0.328363 -0.178437 0.140953
v 0.376403 0.111564 -0.329521
v 0.376403 -0.100936 -0.471443
v 0.328363 0.106564 0.308009
v 0.328363 -0.150937 0.455065
v 0.328363 0.034064 0.203481
v 0.376403 -0.183436 -0.189322
v 0.220000 -0.056477 0.542761
v 0.415711 -0.055420 0.542594
v 0.416135 -0.004362 0.303655
v 0.339801 0.436921 0.058953
v 0.020000 0.432039 0.058953
v 0.020000 0.230249 0.058953
v 0.390583 0.230524 0.058953
v 0.020000 0.432039 0.048953
v 0.020000 0.230249 0.048953
v 0.339801 0.436921 0.048953
v 0.390583 0.230524 0.048953
v 0.138596 -0.313437 -0.405859
v 0.207519 -0.068387 -0.535600
v 0.207519 -0.297836 -0.522152
v 0.207519 -0.068387 -0.522152
v 0.185350 -0.313437 -0.115913
v 0.220000 -0.313437 -0.535600
v 0.220000 -0.313437 0.555221
v 0.202675 -0.313437 0.080291
v 0.138596 -0.762979 -0.308491
v 0.138596 -0.762979 -0.369669
v 0.137189 -0.762980 0.337045
v 0.137189 -0.762980 0.267129
v 0.281397 -0.624761 -0.348849
v 0.281397 -0.624761 -0.329311
v 0.281037 -0.624761 0.287950
v 0.281037 -0.624761 0.316225
v 0.138596 -0.820681 -0.405859
v 0.138596 -0.820681 -0.272300
v 0.137189 -0.820682 0.375107
v 0.137189 -0.820682 0.229067
v 0.137189 -0.567060 0.229067
v 0.138596 -0.567059 -0.405859
v 0.138596 -0.567059 -0.272300
v 0.137189 -0.567060 0.375107
v 0.576510 -0.762979 -0.369669
v 0.576510 -0.762979 -0.308491
v 0.493664 -0.762980 0.337045
v 0.493664 -0.762980 0.267129
v 0.350864 -0.624761 0.287950
v 0.351224 -0.624761 -0.348849
v 0.351224 -0.624761 -0.329311
v 0.350864 -0.624761 0.316225
v 0.138596 -0.624761 -0.369669
v 0.138596 -0.624761 -0.308491
v 0.137189 -0.624761 0.267129
v 0.137189 -0.624761 0.337045
v 0.576510 -0.624761 -0.369669
v 0.576510 -0.624761 -0.308491
v 0.493664 -0.624761 0.267129
v 0.493664 -0.624761 0.337045
v 0.281397 -0.057059 -0.348849
v 0.281397 -0.057059 -0.329311
v 0.281037 -0.057060 0.287950
v 0.281037 -0.057060 0.316225
v 0.351224 -0.057059 -0.348849
v 0.351224 -0.057059 -0.329311
v 0.350864 -0.057060 0.287950
v 0.350864 -0.057060 0.316225
v 0.220000 -0.313437 -0.231599
v 0.220000 -0.313437 0.048953
v 0.185350 -0.657418 -0.115913
v 0.202675 -0.657418 0.080291
v 0.537271 -0.566488 -0.349791
v 0.537271 -0.615333 -0.349791
v 0.585260 -0.566488 -0.324429
v 0.585260 -0.615333 -0.324429
v 0.015349 -0.566487 -0.068370
v 0.015349 -0.615333 -0.068370
v -0.005671 -0.566488 0.069546
v -0.005671 -0.615333 0.069546
v 0.043334 -0.566488 0.044674
v 0.043334 -0.615333 0.044674
v 0.525032 -0.566489 0.329007
v 0.525032 -0.615333 0.329007
v 0.575185 -0.566489 0.320445
v 0.575185 -0.615333 0.320445
v 0.389507 0.555544 0.098953
v 0.346628 0.555236 0.098953
v 0.416135 -0.004362 0.058953
v 0.389507 0.504553 0.077335
v 0.346628 0.504245 0.077335
v 0.346628 0.504245 0.098953
v 0.389507 0.504553 0.098953
v 0.346628 0.555236 0.077335
v 0.389507 0.555544 0.077335
v 0.346628 -0.004670 0.077335
v 0.389507 -0.004362 0.077335
v 0.346628 -0.004670 0.098953
v 0.389507 -0.004362 0.098953
v 0.346628 -0.133730 0.499718
v 0.346628 -0.106651 0.517001
v 0.389507 -0.133566 0.499823
v 0.389507 -0.106487 0.517105
v 0.346628 0.159293 0.417622
v 0.346628 0.120256 0.404500
v 0.389507 0.120492 0.404580
v 0.389507 0.159529 0.417701
v 0.484111 0.682804 0.093901
v 0.473816 0.686833 0.092782
v 0.490473 0.672259 0.096833
v 0.490473 0.659223 0.100457
v 0.484111 0.648677 0.103388
v 0.473816 0.644649 0.104508
v 0.463521 0.648677 0.103388
v 0.457159 0.659223 0.100457
v 0.457159 0.672259 0.096833
v 0.463521 0.682804 0.093901
v 0.484111 0.716950 0.115838
v 0.473816 0.721868 0.115134
v 0.490473 0.704073 0.117682
v 0.490473 0.688157 0.119961
v 0.484111 0.675279 0.121805
v 0.473816 0.670361 0.122509
v 0.463521 0.675279 0.121805
v 0.457159 0.688157 0.119961
v 0.457159 0.704073 0.117682
v 0.463521 0.716950 0.115838
v 0.551327 0.289622 -0.227197
v 0.551327 0.193938 -0.227197
v 0.562767 0.289622 -0.237681
v 0.562767 0.193938 -0.237681
vn -1.0000 -0.0000 -0.0000
vn -0.0000 1.0000 -0.0000
vn -0.0000 0.5569 0.8305
vn 0.2678 0.9635 -0.0000
vn -0.0004 -0.0000 1.0000
vn -0.0007 -0.0000 1.0000
vn -0.0000 0.8034 -0.5954
vn 0.0031 0.8208 -0.5712
vn -0.0385 0.9637 -0.2643
vn 0.3607 0.3915 0.8465
vn 0.0101 0.3675 0.9299
vn 0.9195 -0.0000 -0.3932
vn -0.0000 0.9739 -0.2272
vn -0.0278 -0.9996 -0.0000
vn -0.0000 -0.0000 1.0000
vn -0.0000 0.2321 -0.9727
vn -0.0000 0.3793 -0.9253
vn -0.0001 0.0631 0.9980
vn -0.0001 0.0617 0.9981
vn -0.0000 0.0646 0.9979
vn -0.9923 0.1242 0.0025
vn -0.9560 0.2934 -0.0000
vn -0.9845 0.1751 -0.0000
vn -0.0000 -0.5570 -0.8305
vn -0.1013 -0.3644 0.9257
vn -0.0000 -0.0000 -1.0000
vn 0.9445 -0.1830 -0.2728
vn -0.2678 -0.9635 -0.0000
vn -0.0000 -1.0000 -0.0000
vn -0.2636 0.3541 -0.8973
vn -0.1802 0.4937 -0.8508
vn -0.1643 0.3562 -0.9198
vn -0.0000 0.3361 -0.9418
vn 0.0101 0.3281 -0.9446
vn -0.2579 -0.3898 -0.8841
vn -0.0000 -0.3668 -0.9303
vn 0.9807 0.0877 -0.1746
vn -0.5960 -0.0000 -0.8030
vn -0.2127 -0.1585 -0.9642
vn -0.1686 0.1582 -0.9729
vn -0.2800 -0.0000 -0.9600
vn -0.6509 -0.0000 0.7592
vn -0.2480 -0.9464 0.2068
vn -0.0003 -0.0000 1.0000
vn 0.2895 0.9572 0.0029
vn 0.9941 -0.0059 -0.1086
vn 1.0000 -0.0000 -0.0000
vn -0.0000 0.7138 -0.7003
vn -0.0000 0.2717 0.9624
vn -0.0000 0.7396 0.6730
vn -0.0000 0.8883 0.4592
vn -0.0000 0.3350 -0.9422
vn -0.0000 0.8217 -0.5699
vn -0.0000 0.9999 -0.0151
vn -0.0000 0.2823 -0.9593
vn -0.0000 0.2363 0.9717
vn 0.0027 0.3458 0.9383
vn -0.0000 0.3458 0.9383
vn 0.0007 1.0000 -0.0000
vn 0.0009 -0.0000 -1.0000
vn 0.0004 -0.0000 -1.0000
vn 1.0000 0.0001 -0.0002
vn 1.0000 0.0004 -0.0021
vn 1.0000 0.0003 -0.0018
vn 0.0325 0.9938 0.1062
vn -0.0153 -0.9999 -0.0000
vn 0.9710 -0.2389 -0.0000
vn -0.4013 -0.0000 -0.9160
vn -0.5823 0.2494 -0.7738
vn -0.7571 0.4962 -0.4249
vn -0.7953 0.4674 0.3861
vn -0.5408 0.2116 0.8141
vn -0.1199 0.9928 -0.0065
vn -0.5845 0.2281 -0.7787
vn -0.8228 0.4896 -0.2885
vn -0.8510 0.4668 0.2404
vn -0.5841 0.2227 0.7805
vn -0.5140 -0.0000 0.8578
vn -0.2678 0.9635 -0.0000
vn 0.0004 -0.0000 1.0000
vn 0.0007 -0.0000 1.0000
vn -0.0031 0.8208 -0.5712
vn 0.0385 0.9637 -0.2643
vn -0.3607 0.3914 0.8466
vn -0.0101 0.3675 0.9299
vn -0.9195 -0.0000 -0.3932
vn 0.0278 -0.9996 -0.0000
vn 0.0001 0.0631 0.9980
vn 0.0001 0.0617 0.9981
vn 0.9923 0.1242 0.0025
vn 0.9560 0.2934 -0.0000
vn 0.9845 0.1751 -0.0000
vn 0.1013 -0.3644 0.9257
vn -0.9445 -0.1830 -0.2728
vn 0.2678 -0.9635 -0.0000
vn 0.2636 0.3541 -0.8973
vn 0.1802 0.4937 -0.8508
vn 0.1643 0.3562 -0.9198
vn -0.0101 0.3281 -0.9446
vn 0.2579 -0.3898 -0.8841
vn -0.9807 0.0877 -0.1745
vn 0.5960 -0.0000 -0.8030
vn 0.2127 -0.1585 -0.9642
vn 0.1686 0.1582 -0.9729
vn 0.2800 -0.0000 -0.9600
vn 0.6509 -0.0000 0.7592
vn 0.2480 -0.9464 0.2068
vn 0.0003 -0.0000 1.0000
vn -0.2895 0.9572 0.0029
vn -0.9941 -0.0059 -0.1086
vn -0.0027 0.3458 0.9383
vn -0.0007 1.0000 -0.0000
vn -0.0009 -0.0000 -1.0000
vn -0.0004 -0.0000 -1.0000
vn -1.0000 0.0001 -0.0002
vn -1.0000 0.0003 -0.0018
vn -1.0000 0.0004 -0.0021
vn -0.0325 0.9938 0.1062
vn 0.0153 -0.9999 -0.0000
vn -0.9710 -0.2389 -0.0000
vn 0.4013 -0.0000 -0.9160
vn 0.5823 0.2494 -0.7738
vn 0.7571 0.4962 -0.4249
vn 0.7953 0.4674 0.3861
vn 0.5408 0.2116 0.8141
vn 0.1199 0.9928 -0.0065
vn 0.5845 0.2281 -0.7787
vn 0.8228 0.4896 -0.2885
vn 0.8510 0.4668 0.2404
vn 0.5841 0.2227 0.7805
vn 0.5140 -0.0000 0.8578
vn -0.3577 -0.0000 -0.9338
vn 0.1379 0.2248 0.9646
vn 0.0635 -0.0000 -0.9980
vn 0.0311 -0.2148 -0.9762
vn 0.7612 0.6486 -0.0000
vn -0.7612 -0.6486 -0.0000
vn -0.9961 -0.0000 -0.0880
vn -0.0000 -0.8154 -0.5789
vn -0.0000 -0.2791 -0.9603
vn -0.0000 -0.2791 0.9603
vn -0.0000 -0.8316 0.5553
vn -0.0000 -0.8776 -0.4793
vn -0.0000 -0.9037 0.4281
vn 0.0056 0.3436 -0.9391
vn -0.0568 -0.0000 -0.9984
vn -0.0000 -0.8899 -0.4561
vn -0.0000 -0.9137 0.4063
vn -0.1372 -0.2379 -0.9616
vn -0.1420 -0.1849 0.9724
vn -0.4098 -0.0000 0.9122
vn 0.4302 -0.0000 -0.9027
vn -0.4603 -0.0000 -0.8878
vn 0.4392 -0.0000 0.8984
vn -0.6756 -0.0000 0.7372
vn 0.3577 -0.0000 -0.9338
vn -0.1379 0.2248 0.9646
vn -0.0635 -0.0000 -0.9980
vn -0.0311 -0.2148 -0.9762
vn -0.7612 0.6486 -0.0000
vn 0.7612 -0.6486 -0.0000
vn 0.9961 -0.0000 -0.0880
vn -0.0056 0.3436 -0.9391
vn 0.0568 -0.0000 -0.9984
vn 0.1372 -0.2379 -0.9616
vn 0.1420 -0.1849 0.9724
vn 0.4098 -0.0000 0.9122
vn -0.4302 -0.0000 -0.9027
vn 0.4603 -0.0000 -0.8878
vn -0.4392 -0.0000 0.8984
vn 0.6757 -0.0000 0.7372
vn 0.2749 -0.0000 0.9615
vn 0.1969 -0.0000 0.9804
vn -0.0000 0.3905 -0.9206
vn -0.9526 0.3043 -0.0000
vn -0.2749 -0.0000 0.9615
vn -0.1969 -0.0000 0.9804
vn 0.9526 0.3043 -0.0000
vn 0.5591 0.0025 0.8291
vn -0.5591 0.0025 0.8291
vn -0.1577 0.0041 -0.9875
vn -0.1571 0.0050 0.9876
vn -0.5601 0.0022 -0.8284
vn 0.5601 0.0022 -0.8284
vn 0.1571 0.0050 0.9876
vn 0.1577 0.0041 -0.9875
vn 0.1584 0.1249 0.9794
vn 0.5616 0.1691 -0.8100
vn 0.5669 -0.0018 0.8238
vn -0.1604 0.0022 -0.9871
vn 0.5669 0.0018 -0.8238
vn -0.5669 0.0018 -0.8238
vn -0.5616 0.1691 -0.8100
vn 0.1604 0.0022 -0.9871
vn -0.1584 0.1249 0.9794
vn 0.9715 0.2367 0.0085
vn -0.5669 -0.0018 0.8238
vn -0.1598 0.1260 -0.9791
vn -0.5561 0.1675 0.8141
vn -0.1604 -0.0022 0.9871
vn 0.5561 0.1675 0.8141
vn 0.1598 0.1260 -0.9791
vn 0.1604 -0.0022 0.9871
vn -0.9715 0.2367 0.0085
vn 0.0072 1.0000 -0.0000
vn 0.0036 1.0000 -0.0000
vn -0.0072 -1.0000 -0.0000
vn -0.0000 -0.5380 0.8430
vn 0.0036 0.3500 0.9367
vn -0.0036 -0.3510 -0.9364
vn -0.0047 -0.6227 -0.7825
vn 0.0047 0.6270 0.7790
vn -0.6041 0.1449 -0.7836
vn 0.6041 0.1449 -0.7836
vn 0.1756 -0.1768 0.9685
vn 0.1762 0.1794 -0.9679
vn 0.6032 -0.1438 0.7845
vn -0.6032 -0.1438 0.7845
vn -0.1762 0.1794 -0.9679
vn -0.1756 -0.1768 0.9685
vn -0.3056 -0.5440 0.7814
vn -0.7963 0.3292 -0.5074
vn 0.7963 0.3292 -0.5074
vn 0.3056 -0.5440 0.7814
vn 0.2951 0.5152 -0.8047
vn 0.8031 -0.3360 0.4920
vn -0.8031 -0.3360 0.4920
vn -0.2951 0.5152 -0.8047
vn -0.0000 0.1417 0.9899
vn -0.0072 1.0000 -0.0000
vn -0.0036 1.0000 -0.0000
vn 0.0072 -1.0000 -0.0000
vn -0.0036 0.3500 0.9367
vn 0.0036 -0.3510 -0.9364
vn 0.0047 -0.6227 -0.7825
vn -0.0047 0.6270 0.7790
vn -0.2454 0.5091 -0.8250
vn -0.1724 0.3341 -0.9266
vn 0.2454 0.5091 -0.8250
vn 0.1724 0.3341 -0.9266
vn 0.0065 -1.0000 -0.0000
vn 0.1807 -0.9667 0.1810
vn -0.0065 -1.0000 -0.0000
vn -0.1807 -0.9667 0.1810
vt 0.432059 0.680098
vt 0.447265 0.679579
vt 0.432161 0.680451
vt 0.434059 0.682098
vt 0.433047 0.683519
vt 0.432994 0.683334
vt 0.433059 0.683559
vt 0.432269 0.680827
vt 0.433021 0.683427
vt 0.062191 0.308787
vt 0.062916 0.311295
vt 0.062969 0.311479
vt 0.062942 0.311388
vt 0.932059 0.555098
vt 0.939422 0.567902
vt 0.938461 0.559618
vt 0.943383 0.574382
vt 0.947265 0.554579
vt 0.064422 0.317902
vt 0.057059 0.305098
vt 0.065019 0.181137
vt 0.058059 0.183559
vt 0.822265 0.679579
vt 0.557059 0.930098
s 1
usemtl body_light_blue.002
f 35/1/1 85/1/1 156/1/1 169/1/1
f 78/1/2 80/1/2 18/1/2 84/1/2
f 81/1/3 37/1/3 98/1/3 95/1/3
f 88/1/4 192/1/4 191/1/4 103/1/4
f 73/1/1 182/1/1 35/1/1 8/1/1
f 4/1/1 64/1/1 182/1/1 73/1/1 50/1/1 57/1/1 58/1/1 54/1/1 56/1/1 55/1/1 51/1/1
f 43/1/1 8/1/1 35/1/1 169/1/1 168/1/1 42/1/1 49/1/1 45/1/1 46/1/1 48/1/1 47/1/1
f 271/1/5 178/1/5 64/1/6 4/1/6
f 36/1/7 87/1/7 94/1/7 97/1/7
f 9/1/8 36/1/8 97/1/8 102/1/8
f 85/1/9 82/1/9 157/1/9 156/1/9
f 40/2/10 63/2/10 167/2/10 163/2/10
f 68/2/11 40/2/11 163/2/11 165/2/11
f 62/1/12 158/1/12 173/1/12 172/1/12
f 82/1/13 12/1/13 160/1/13 157/1/13
f 260/1/14 261/1/14 265/1/14 264/1/14
f 66/1/2 170/1/2 263/1/2 262/1/2
f 270/1/15 72/1/15 178/1/5 271/1/5
f 37/1/16 81/1/16 12/1/16 82/1/16
f 39/1/16 16/1/16 83/1/16 84/1/16
f 10/1/16 37/1/16 82/1/16 85/1/16
f 16/1/17 10/1/17 85/1/17 83/1/17
f 86/1/16 39/1/16 84/1/16 18/1/16
f 36/1/18 9/1/19 176/1/19 65/1/18
f 87/1/20 36/1/18 65/1/18 179/1/20
f 181/1/21 176/1/21 9/1/21 192/1/21 88/1/21
f 75/1/22 181/1/22 88/1/22 89/1/22
f 85/1/23 181/1/23 91/1/23 90/1/23
f 181/1/22 75/1/22 92/1/22 91/1/22
f 75/1/23 83/1/23 93/1/23 92/1/23
f 83/1/22 85/1/22 90/1/22 93/1/22
f 90/1/4 91/1/4 104/1/4 105/1/4
f 89/1/15 88/1/15 103/1/15
f 16/1/24 39/1/24 99/1/24 100/1/24
f 93/1/25 90/1/25 105/1/25 106/1/25
f 37/1/3 10/1/3 101/1/3 98/1/3
f 91/1/26 92/1/26 107/1/26 104/1/26
f 10/1/27 16/1/27 100/1/27 101/1/27
f 92/1/28 93/1/28 106/1/28 107/1/28
f 39/1/24 86/1/24 96/1/24 99/1/24
f 109/1/26 108/1/26 115/1/26 114/1/26
f 112/1/1 113/1/1 114/1/1 115/1/1
f 111/1/15 110/1/15 113/1/15 112/1/15
f 85/1/1 35/1/1 182/1/1 181/1/1
f 108/1/29 111/1/29 112/1/29 115/1/29
f 110/1/2 109/1/2 114/1/2 113/1/2
f 61/2/30 59/2/30 156/2/30 157/2/30
f 59/2/31 63/2/31 169/2/31 156/2/31
f 63/2/32 40/2/32 171/2/32 169/2/32
f 60/2/33 61/2/33 157/2/33 160/2/33
f 40/2/34 68/2/34 161/2/34 171/2/34
f 59/2/35 61/2/35 162/2/35 166/2/35
f 61/2/36 60/2/36 164/2/36 162/2/36
f 63/2/37 59/2/37 166/2/37 167/2/37
f 158/1/38 62/1/38 168/1/38 169/1/38
f 62/1/39 67/1/39 268/1/39 168/1/39
f 159/1/40 158/1/40 169/1/40 171/1/40
f 67/1/41 159/1/41 171/1/41 268/1/41
f 159/1/42 67/1/42 174/1/42 175/1/42
f 67/1/2 62/1/2 172/1/2 174/1/2
f 158/1/43 159/1/43 175/1/43 173/1/43
f 71/1/44 177/1/6 64/1/6 178/1/5
f 180/1/15 71/1/44 178/1/5 72/1/15
f 76/1/1 74/1/1 181/1/1 182/1/1
f 177/1/1 76/1/1 182/1/1 64/1/1
f 74/1/1 176/1/1 181/1/1
f 191/1/45 192/1/45 9/1/45 102/1/45
f 227/1/46 218/1/46 219/1/46 243/1/46 237/1/46
f 217/1/47 228/1/47 230/1/47 231/1/47 229/1/47 233/1/47 232/1/47 227/1/47 237/1/47 242/1/47 240/1/47 234/1/47 241/1/47
f 221/1/47 224/1/47 225/1/47 223/1/47 222/1/47 226/1/47 220/1/47 235/1/47 239/1/47 236/1/47 238/1/47 219/1/47 218/1/47
f 211/1/48 238/1/48 236/1/48 209/1/48
f 214/1/49 241/1/49 234/1/49 207/1/49
f 212/1/26 239/1/26 235/1/26 208/1/26
f 194/1/50 219/1/50 238/1/50 211/1/50
f 207/1/51 234/1/51 240/1/51 213/1/51
f 209/1/52 236/1/52 239/1/52 212/1/52
f 193/1/15 217/1/15 241/1/15 214/1/15
f 193/1/29 228/1/29 217/1/29
f 208/1/29 235/1/29 220/1/29
f 213/1/53 240/1/53 242/1/53 215/1/53
f 195/1/29 221/1/29 218/1/29
f 210/1/54 237/1/54 243/1/54 216/1/54
f 215/1/55 242/1/55 237/1/55 210/1/55
f 216/1/56 243/1/56 219/1/56 194/1/56
f 83/1/2 75/1/2 78/1/2 84/1/2
f 89/1/4 107/1/4 92/1/4
f 89/3/57 244/4/58 80/4/58 75/4/57
f 252/5/59 255/5/59 257/6/59 253/6/59
f 102/1/60 97/1/61 247/1/61 248/1/60
f 191/1/62 102/1/63 248/1/63 249/1/64
f 97/1/61 94/1/26 246/1/26 247/1/61
f 103/7/15 348/7/15 349/7/15 245/7/15
f 103/1/47 191/1/62 249/1/64 348/1/47
f 247/7/65 246/7/65 349/7/65 348/7/65 249/7/65 248/7/65
f 89/3/15 250/8/15 251/9/15 244/7/15
f 244/7/15 251/9/15 252/5/15 245/7/15
f 245/7/15 252/5/15 253/6/15 103/7/15
f 103/7/15 253/6/15 250/8/15 89/3/15
f 256/10/15 257/11/15 255/12/15 254/13/15
f 250/8/66 256/8/66 254/9/66 251/9/66
f 251/9/1 254/9/1 255/5/1 252/5/1
f 253/6/67 257/6/67 256/8/67 250/8/67
f 170/1/26 66/1/26 258/1/26 268/1/26
f 260/1/26 170/1/26 268/1/26 171/1/26
f 261/1/26 260/1/26 171/1/26 161/1/26
f 170/1/47 260/1/47 264/1/47 263/1/47
f 317/14/2 316/14/2 320/14/2 321/14/2
f 315/1/2 314/1/2 318/1/2 319/1/2
f 212/1/68 208/1/68 200/1/68
f 209/1/69 212/1/69 200/1/69 196/1/69
f 211/1/70 209/1/70 196/1/70 197/1/70
f 194/1/71 211/1/71 197/1/71 199/1/71
f 216/1/72 194/1/72 199/1/72 198/1/72
f 205/1/73 210/1/73 216/1/73 198/1/73
f 201/1/1 205/1/1 198/1/1 195/1/1
f 206/1/74 215/1/74 210/1/74 205/1/74
f 202/1/75 213/1/75 215/1/75 206/1/75
f 204/1/76 207/1/76 213/1/76 202/1/76
f 203/1/77 214/1/77 207/1/77 204/1/77
f 193/1/78 214/1/78 203/1/78
f 427/1/47 544/1/47 535/1/47 469/1/47
f 465/1/2 468/1/2 18/1/2 80/1/2
f 81/1/3 95/1/3 477/1/3 429/1/3
f 470/1/79 482/1/79 562/1/79 563/1/79
f 460/1/47 403/1/47 427/1/47 555/1/47
f 399/1/47 443/1/47 447/1/47 448/1/47 446/1/47 450/1/47 449/1/47 442/1/47 460/1/47 555/1/47 455/1/47
f 435/1/47 439/1/47 440/1/47 438/1/47 437/1/47 441/1/47 434/1/47 543/1/47 544/1/47 427/1/47 403/1/47
f 632/1/80 399/1/81 455/1/81 553/1/80
f 428/1/7 476/1/7 94/1/7 87/1/7
f 404/1/82 481/1/82 476/1/82 428/1/82
f 469/1/83 535/1/83 536/1/83 466/1/83
f 432/2/84 540/2/84 542/2/84 454/2/84
f 68/2/85 165/2/85 540/2/85 432/2/85
f 453/1/86 547/1/86 548/1/86 537/1/86
f 466/1/13 536/1/13 160/1/13 12/1/13
f 627/1/87 629/1/87 265/1/87 261/1/87
f 66/1/2 262/1/2 628/1/2 545/1/2
f 270/1/15 632/1/80 553/1/80 72/1/15
f 429/1/16 466/1/16 12/1/16 81/1/16
f 431/1/16 468/1/16 467/1/16 409/1/16
f 405/1/16 469/1/16 466/1/16 429/1/16
f 409/1/17 467/1/17 469/1/17 405/1/17
f 86/1/16 18/1/16 468/1/16 431/1/16
f 428/1/88 456/1/88 551/1/89 404/1/89
f 87/1/20 179/1/20 456/1/88 428/1/88
f 554/1/90 470/1/90 563/1/90 404/1/90 551/1/90
f 462/1/91 471/1/91 470/1/91 554/1/91
f 469/1/92 472/1/92 473/1/92 554/1/92
f 554/1/91 473/1/91 474/1/91 462/1/91
f 462/1/92 474/1/92 475/1/92 467/1/92
f 467/1/91 475/1/91 472/1/91 469/1/91
f 472/1/79 484/1/79 483/1/79 473/1/79
f 471/1/15 482/1/15 470/1/15
f 409/1/24 479/1/24 478/1/24 431/1/24
f 475/1/93 485/1/93 484/1/93 472/1/93
f 429/1/3 477/1/3 480/1/3 405/1/3
f 473/1/26 483/1/26 486/1/26 474/1/26
f 405/1/94 480/1/94 479/1/94 409/1/94
f 474/1/95 486/1/95 485/1/95 475/1/95
f 431/1/24 478/1/24 96/1/24 86/1/24
f 488/1/26 493/1/26 494/1/26 487/1/26
f 491/1/47 494/1/47 493/1/47 492/1/47
f 490/1/15 491/1/15 492/1/15 489/1/15
f 469/1/47 554/1/47 555/1/47 427/1/47
f 487/1/29 494/1/29 491/1/29 490/1/29
f 489/1/2 492/1/2 493/1/2 488/1/2
f 452/2/96 536/2/96 535/2/96 451/2/96
f 451/2/97 535/2/97 544/2/97 454/2/97
f 454/2/98 544/2/98 546/2/98 432/2/98
f 60/2/33 160/2/33 536/2/33 452/2/33
f 432/2/99 546/2/99 161/2/99 68/2/99
f 451/2/100 541/2/100 539/2/100 452/2/100
f 452/2/36 539/2/36 164/2/36 60/2/36
f 454/2/101 542/2/101 541/2/101 451/2/101
f 537/1/102 544/1/102 543/1/102 453/1/102
f 453/1/103 543/1/103 631/1/103 457/1/103
f 538/1/104 546/1/104 544/1/104 537/1/104
f 457/1/105 631/1/105 546/1/105 538/1/105
f 538/1/106 550/1/106 549/1/106 457/1/106
f 457/1/2 549/1/2 547/1/2 453/1/2
f 537/1/107 548/1/107 550/1/107 538/1/107
f 459/1/108 553/1/80 455/1/81 552/1/81
f 180/1/15 72/1/15 553/1/80 459/1/108
f 463/1/47 555/1/47 554/1/47 461/1/47
f 552/1/47 455/1/47 555/1/47 463/1/47
f 461/1/47 554/1/47 551/1/47
f 562/1/109 481/1/109 404/1/109 563/1/109
f 598/1/110 608/1/110 614/1/110 590/1/110 589/1/110
f 588/1/1 612/1/1 605/1/1 611/1/1 613/1/1 608/1/1 598/1/1 603/1/1 604/1/1 600/1/1 602/1/1 601/1/1 599/1/1
f 592/1/1 589/1/1 590/1/1 609/1/1 607/1/1 610/1/1 606/1/1 591/1/1 597/1/1 593/1/1 594/1/1 596/1/1 595/1/1
f 582/1/48 580/1/48 607/1/48 609/1/48
f 585/1/49 578/1/49 605/1/49 612/1/49
f 583/1/26 579/1/26 606/1/26 610/1/26
f 565/1/50 582/1/50 609/1/50 590/1/50
f 578/1/51 584/1/51 611/1/51 605/1/51
f 580/1/52 583/1/52 610/1/52 607/1/52
f 564/1/15 585/1/15 612/1/15 588/1/15
f 564/1/29 588/1/29 599/1/29
f 579/1/29 591/1/29 606/1/29
f 584/1/53 586/1/53 613/1/53 611/1/53
f 566/1/29 589/1/29 592/1/29
f 581/1/54 587/1/54 614/1/54 608/1/54
f 586/1/55 581/1/55 608/1/55 613/1/55
f 587/1/56 565/1/56 590/1/56 614/1/56
f 467/1/2 468/1/2 465/1/2 462/1/2
f 471/1/79 474/1/79 486/1/79
f 471/3/111 462/4/111 80/4/58 244/4/58
f 620/5/112 621/6/112 625/6/112 623/5/112
f 481/1/113 616/1/113 615/1/114 476/1/114
f 562/1/115 617/1/116 616/1/117 481/1/117
f 476/1/114 615/1/114 246/1/26 94/1/26
f 482/7/15 245/7/15 349/7/15 694/7/15
f 482/1/1 694/1/1 617/1/116 562/1/115
f 615/7/118 616/7/118 617/7/118 694/7/118 349/7/118 246/7/118
f 471/3/15 244/7/15 619/9/15 618/8/15
f 244/7/15 245/7/15 620/5/15 619/9/15
f 245/7/15 482/7/15 621/6/15 620/5/15
f 482/7/15 471/3/15 618/8/15 621/6/15
f 624/10/15 622/13/15 623/12/15 625/11/15
f 618/8/119 619/9/119 622/9/119 624/8/119
f 619/9/47 620/5/47 623/5/47 622/9/47
f 621/6/120 618/8/120 624/8/120 625/6/120
f 545/1/26 631/1/26 258/1/26 66/1/26
f 627/1/26 546/1/26 631/1/26 545/1/26
f 261/1/26 161/1/26 546/1/26 627/1/26
f 545/1/1 628/1/1 629/1/1 627/1/1
f 669/14/2 673/14/2 672/14/2 668/14/2
f 667/1/2 671/1/2 670/1/2 666/1/2
f 583/1/121 571/1/121 579/1/121
f 580/1/122 567/1/122 571/1/122 583/1/122
f 582/1/123 568/1/123 567/1/123 580/1/123
f 565/1/124 570/1/124 568/1/124 582/1/124
f 587/1/125 569/1/125 570/1/125 565/1/125
f 576/1/126 569/1/126 587/1/126 581/1/126
f 572/1/47 566/1/47 569/1/47 576/1/47
f 577/1/127 576/1/127 581/1/127 586/1/127
f 573/1/128 577/1/128 586/1/128 584/1/128
f 575/1/129 573/1/129 584/1/129 578/1/129
f 574/1/130 575/1/130 578/1/130 585/1/130
f 564/1/131 574/1/131 585/1/131
usemtl body_black.002
f 44/14/29 42/14/29 168/14/29 268/14/29 323/14/29 8/14/29 43/14/29 41/14/29
f 73/14/29 324/14/29 271/14/29 4/14/29 51/14/29 52/14/29 53/14/29 50/14/29
f 324/14/29 73/14/29 8/14/29 323/14/29
f 29/15/132 27/15/132 22/15/132 21/15/132
f 29/15/2 21/15/2 19/15/2 28/15/2
f 26/15/133 30/15/133 31/15/133 32/15/133
f 26/15/47 24/15/47 23/15/47 25/15/47
f 22/15/29 27/15/29 30/15/29 20/15/29
f 23/15/2 29/15/2 28/15/2 25/15/2
f 23/15/134 24/15/134 27/15/134 29/15/134
f 34/15/29 33/15/29 32/15/29 31/15/29
f 27/15/135 24/15/135 33/15/135 34/15/135
f 24/15/136 26/15/136 32/15/136 33/15/136
f 30/15/137 27/15/137 34/15/137 31/15/137
f 272/14/138 267/14/138 328/14/138 329/14/138
f 288/14/15 297/14/15 292/14/15 276/14/15
f 278/14/15 307/14/15 311/14/15 299/14/15
f 2/16/139 6/16/139 48/16/139 46/16/139
f 6/16/140 7/16/140 47/16/140 48/16/140
f 7/16/26 41/16/26 43/16/26 47/16/26
f 42/16/15 44/16/15 15/16/15 49/16/15
f 15/16/141 17/16/141 45/16/141 49/16/141
f 17/16/142 2/16/142 46/16/142 45/16/142
f 7/16/1 6/16/1 2/16/1 17/16/1 15/16/1 44/16/1 41/16/1
f 1/17/143 3/17/143 56/17/143 54/17/143
f 3/17/140 5/17/140 55/17/140 56/17/140
f 5/17/26 52/17/26 51/17/26 55/17/26
f 50/17/15 53/17/15 11/17/15 57/17/15
f 11/17/141 13/17/141 58/17/141 57/17/141
f 13/17/144 1/17/144 54/17/144 58/17/144
f 52/17/1 5/17/1 3/17/1 1/17/1 13/17/1 11/17/1 53/17/1
f 163/18/145 162/18/145 164/18/145 165/18/145
f 173/14/146 175/14/146 174/14/146 172/14/146
f 197/14/139 223/14/139 225/14/139 199/14/139
f 202/14/147 229/14/147 231/14/147 204/14/147
f 201/14/15 227/14/15 232/14/15 205/14/15
f 196/14/142 222/14/142 223/14/142 197/14/142
f 206/14/148 233/14/148 229/14/148 202/14/148
f 198/14/26 224/14/26 221/14/26 195/14/26
f 199/14/140 225/14/140 224/14/140 198/14/140
f 204/14/140 231/14/140 230/14/140 203/14/140
f 200/14/141 226/14/141 222/14/141 196/14/141
f 195/14/29 218/14/29 227/14/29 201/14/29
f 203/14/149 230/14/149 228/14/149 193/14/149
f 205/14/141 232/14/141 233/14/141 206/14/141
f 208/14/150 220/14/150 226/14/150 200/14/150
f 265/14/26 262/14/26 263/14/26 264/14/26
f 38/14/29 266/14/29 322/14/29 323/14/29
f 259/14/29 38/14/29 323/14/29 268/14/29
f 269/14/29 259/14/29 268/14/29 258/14/29
f 70/14/29 69/14/29 270/14/29 271/14/29
f 79/14/29 77/14/29 324/14/29 273/14/29
f 77/14/29 70/14/29 271/14/29 324/14/29
f 276/14/29 292/14/29 293/14/29 277/14/29
f 275/14/29 291/14/29 290/14/29 274/14/29
f 280/14/15 309/14/15 313/14/15 300/14/15
f 294/14/26 289/14/26 277/14/26 293/14/26
f 295/14/26 283/14/26 274/14/26 290/14/26
f 282/14/15 296/14/15 291/14/15 275/14/15
f 266/14/15 38/14/15 296/14/15 282/14/15
f 259/14/26 269/14/26 283/14/26 295/14/26
f 38/14/1 259/14/1 295/14/1 296/14/1
f 77/14/26 79/14/26 289/14/26 294/14/26
f 70/14/1 77/14/1 294/14/1 297/14/1
f 69/14/15 70/14/15 297/14/15 288/14/15
f 278/14/1 279/14/1 290/14/1 291/14/1
f 280/14/1 281/14/1 293/14/1 292/14/1
f 281/14/1 308/14/1 294/14/1 293/14/1
f 279/14/1 306/14/1 295/14/1 290/14/1
f 307/14/1 278/14/1 291/14/1 296/14/1
f 306/14/1 307/14/1 296/14/1 295/14/1
f 309/14/1 280/14/1 292/14/1 297/14/1
f 308/14/1 309/14/1 297/14/1 294/14/1
f 308/14/26 281/14/26 301/14/26 312/14/26
f 279/14/29 278/14/29 299/14/29 298/14/29
f 304/14/15 285/14/15 315/14/15 319/14/15
f 284/14/26 303/14/26 318/14/26 314/14/26
f 306/14/26 279/14/26 298/14/26 310/14/26
f 281/14/29 280/14/29 300/14/29 301/14/29
f 284/14/2 285/14/2 307/14/2 306/14/2
f 286/14/2 287/14/2 309/14/2 308/14/2
f 304/14/2 303/14/2 310/14/2 311/14/2
f 305/14/2 302/14/2 312/14/2 313/14/2
f 287/14/2 305/14/2 313/14/2 309/14/2
f 285/14/2 304/14/2 311/14/2 307/14/2
f 302/14/2 286/14/2 308/14/2 312/14/2
f 303/14/2 284/14/2 306/14/2 310/14/2
f 302/14/1 305/14/1 321/14/1 320/14/1
f 287/14/47 286/14/47 316/14/47 317/14/47
f 286/14/26 302/14/26 320/14/26 316/14/26
f 305/14/15 287/14/15 317/14/15 321/14/15
f 303/14/1 304/14/1 319/14/1 318/14/1
f 285/14/47 284/14/47 314/14/47 315/14/47
f 14/14/29 267/14/29 323/14/29 322/14/29
f 267/14/29 272/14/29 324/14/29 323/14/29
f 326/14/29 329/14/29 328/14/29 327/14/29
f 325/14/15 272/14/15 329/14/15 326/14/15
f 267/14/26 14/14/26 327/14/26 328/14/26
f 333/14/29 331/14/29 335/14/29 337/14/29
f 330/14/2 332/14/2 336/14/2 334/14/2
f 332/14/151 333/14/151 337/14/151 336/14/151
f 331/14/152 330/14/152 334/14/152 335/14/152
f 341/14/29 339/14/29 343/14/29 345/14/29
f 338/14/2 340/14/2 344/14/2 342/14/2
f 340/14/153 341/14/153 345/14/153 344/14/153
f 339/14/154 338/14/154 342/14/154 343/14/154
f 394/15/155 395/15/155 393/15/155 392/15/155
f 436/14/29 433/14/29 435/14/29 403/14/29 674/14/29 631/14/29 543/14/29 434/14/29
f 460/14/29 442/14/29 445/14/29 444/14/29 443/14/29 399/14/29 632/14/29 675/14/29
f 675/14/29 674/14/29 403/14/29 460/14/29
f 421/15/156 413/15/156 414/15/156 419/15/156
f 421/15/2 420/15/2 411/15/2 413/15/2
f 418/15/157 424/15/157 423/15/157 422/15/157
f 418/15/1 417/15/1 415/15/1 416/15/1
f 414/15/29 412/15/29 422/15/29 419/15/29
f 415/15/2 417/15/2 420/15/2 421/15/2
f 415/15/158 421/15/158 419/15/158 416/15/158
f 426/15/29 423/15/29 424/15/29 425/15/29
f 419/15/159 426/15/159 425/15/159 416/15/159
f 416/15/160 425/15/160 424/15/160 418/15/160
f 422/15/161 423/15/161 426/15/161 419/15/161
f 633/14/162 677/14/162 676/14/162 630/14/162
f 288/14/15 276/14/15 644/14/15 649/14/15
f 634/14/15 651/14/15 663/14/15 659/14/15
f 397/16/139 438/16/139 440/16/139 401/16/139
f 401/16/140 440/16/140 439/16/140 402/16/140
f 402/16/26 439/16/26 435/16/26 433/16/26
f 434/16/15 441/16/15 408/16/15 436/16/15
f 408/16/141 441/16/141 437/16/141 410/16/141
f 410/16/142 437/16/142 438/16/142 397/16/142
f 402/16/47 433/16/47 436/16/47 408/16/47 410/16/47 397/16/47 401/16/47
f 396/17/143 446/17/143 448/17/143 398/17/143
f 398/17/140 448/17/140 447/17/140 400/17/140
f 400/17/26 447/17/26 443/17/26 444/17/26
f 442/17/15 449/17/15 406/17/15 445/17/15
f 406/17/141 449/17/141 450/17/141 407/17/141
f 407/17/144 450/17/144 446/17/144 396/17/144
f 444/17/47 445/17/47 406/17/47 407/17/47 396/17/47 398/17/47 400/17/47
f 540/18/163 165/18/163 164/18/163 539/18/163
f 548/14/164 547/14/164 549/14/164 550/14/164
f 568/14/139 570/14/139 596/14/139 594/14/139
f 573/14/147 575/14/147 602/14/147 600/14/147
f 572/14/15 576/14/15 603/14/15 598/14/15
f 567/14/142 568/14/142 594/14/142 593/14/142
f 577/14/148 573/14/148 600/14/148 604/14/148
f 569/14/26 566/14/26 592/14/26 595/14/26
f 570/14/140 569/14/140 595/14/140 596/14/140
f 575/14/140 574/14/140 601/14/140 602/14/140
f 571/14/141 567/14/141 593/14/141 597/14/141
f 566/14/29 572/14/29 598/14/29 589/14/29
f 574/14/165 564/14/165 599/14/165 601/14/165
f 576/14/141 577/14/141 604/14/141 603/14/141
f 579/14/166 571/14/166 597/14/166 591/14/166
f 265/14/26 629/14/26 628/14/26 262/14/26
f 430/14/29 674/14/29 322/14/29 266/14/29
f 626/14/29 631/14/29 674/14/29 430/14/29
f 269/14/29 258/14/29 631/14/29 626/14/29
f 458/14/29 632/14/29 270/14/29 69/14/29
f 79/14/29 273/14/29 675/14/29 464/14/29
f 464/14/29 675/14/29 632/14/29 458/14/29
f 276/14/29 277/14/29 645/14/29 644/14/29
f 275/14/29 274/14/29 642/14/29 643/14/29
f 636/14/15 652/14/15 665/14/15 661/14/15
f 646/14/26 645/14/26 277/14/26 289/14/26
f 647/14/26 642/14/26 274/14/26 283/14/26
f 282/14/15 275/14/15 643/14/15 648/14/15
f 266/14/15 282/14/15 648/14/15 430/14/15
f 626/14/26 647/14/26 283/14/26 269/14/26
f 430/14/47 648/14/47 647/14/47 626/14/47
f 464/14/26 646/14/26 289/14/26 79/14/26
f 458/14/47 649/14/47 646/14/47 464/14/47
f 69/14/15 288/14/15 649/14/15 458/14/15
f 634/14/47 643/14/47 642/14/47 635/14/47
f 636/14/47 644/14/47 645/14/47 637/14/47
f 637/14/47 645/14/47 646/14/47 660/14/47
f 635/14/47 642/14/47 647/14/47 658/14/47
f 659/14/47 648/14/47 643/14/47 634/14/47
f 658/14/47 647/14/47 648/14/47 659/14/47
f 661/14/47 649/14/47 644/14/47 636/14/47
f 660/14/47 646/14/47 649/14/47 661/14/47
f 660/14/26 664/14/26 653/14/26 637/14/26
f 635/14/29 650/14/29 651/14/29 634/14/29
f 656/14/15 671/14/15 667/14/15 639/14/15
f 638/14/26 666/14/26 670/14/26 655/14/26
f 658/14/26 662/14/26 650/14/26 635/14/26
f 637/14/29 653/14/29 652/14/29 636/14/29
f 638/14/2 658/14/2 659/14/2 639/14/2
f 640/14/2 660/14/2 661/14/2 641/14/2
f 656/14/2 663/14/2 662/14/2 655/14/2
f 657/14/2 665/14/2 664/14/2 654/14/2
f 641/14/2 661/14/2 665/14/2 657/14/2
f 639/14/2 659/14/2 663/14/2 656/14/2
f 654/14/2 664/14/2 660/14/2 640/14/2
f 655/14/2 662/14/2 658/14/2 638/14/2
f 654/14/47 672/14/47 673/14/47 657/14/47
f 641/14/1 669/14/1 668/14/1 640/14/1
f 640/14/26 668/14/26 672/14/26 654/14/26
f 657/14/15 673/14/15 669/14/15 641/14/15
f 655/14/47 670/14/47 671/14/47 656/14/47
f 639/14/1 667/14/1 666/14/1 638/14/1
f 14/14/29 322/14/29 674/14/29 630/14/29
f 630/14/29 674/14/29 675/14/29 633/14/29
f 326/14/29 327/14/29 676/14/29 677/14/29
f 325/14/15 326/14/15 677/14/15 633/14/15
f 630/14/26 676/14/26 327/14/26 14/14/26
f 681/14/29 683/14/29 335/14/29 679/14/29
f 678/14/2 334/14/2 682/14/2 680/14/2
f 680/14/167 682/14/167 683/14/167 681/14/167
f 679/14/168 335/14/168 334/14/168 678/14/168
f 687/14/29 691/14/29 689/14/29 685/14/29
f 684/14/2 688/14/2 690/14/2 686/14/2
f 686/14/169 690/14/169 691/14/169 687/14/169
f 685/14/170 689/14/170 688/14/170 684/14/170
f 735/15/171 733/15/171 734/15/171 736/15/171
usemtl windows.001
f 28/19/172 30/19/172 26/19/172 25/19/172
f 19/19/173 20/19/173 30/19/173 28/19/173
f 98/20/174 101/20/174 100/20/174 99/20/174
f 95/20/174 98/20/174 99/20/174 96/20/174
f 105/20/175 104/20/175 107/20/175 106/20/175
f 420/19/176 417/19/176 418/19/176 422/19/176
f 411/19/177 420/19/177 422/19/177 412/19/177
f 477/20/174 478/20/174 479/20/174 480/20/174
f 95/20/174 96/20/174 478/20/174 477/20/174
f 484/20/178 485/20/178 486/20/178 483/20/178
usemtl body_grey.002
f 149/21/179 148/21/179 133/21/179 132/21/179
f 152/21/180 151/21/180 130/21/180 129/21/180
f 154/21/181 155/21/181 126/21/181 127/21/181
f 148/21/47 147/21/47 134/21/47 133/21/47
f 151/21/182 150/21/182 131/21/182 130/21/182
f 155/21/183 153/21/183 128/21/183 126/21/183
f 147/21/184 146/21/184 135/21/184 134/21/184
f 150/21/185 149/21/185 132/21/185 131/21/185
f 153/21/1 152/21/1 129/21/1 128/21/1
f 146/21/186 154/21/186 127/21/186 135/21/186
f 121/21/187 122/21/187 149/21/187 150/21/187
f 124/21/188 125/21/188 146/21/188 147/21/188
f 123/21/189 122/21/189 142/21/189 143/21/189
f 124/21/47 123/21/47 143/21/47 144/21/47
f 116/21/190 117/21/190 137/21/190 136/21/190
f 125/21/191 124/21/191 144/21/191 145/21/191
f 118/21/192 116/21/192 136/21/192 138/21/192
f 116/21/193 118/21/193 153/21/193 155/21/193
f 117/21/194 125/21/194 145/21/194 137/21/194
f 119/21/1 118/21/1 138/21/1 139/21/1
f 120/21/195 121/21/195 150/21/195 151/21/195
f 123/21/196 124/21/196 147/21/196 148/21/196
f 120/21/197 119/21/197 139/21/197 140/21/197
f 117/21/198 116/21/198 155/21/198 154/21/198
f 119/21/199 120/21/199 151/21/199 152/21/199
f 121/21/200 120/21/200 140/21/200 141/21/200
f 122/21/201 123/21/201 148/21/201 149/21/201
f 125/21/202 117/21/202 154/21/202 146/21/202
f 122/21/203 121/21/203 141/21/203 142/21/203
f 118/21/204 119/21/204 152/21/204 153/21/204
f 359/22/1 353/22/1 350/22/1 357/22/1
f 355/22/26 354/22/26 351/22/26 350/22/26
f 369/22/47 368/22/47 365/22/47 364/22/47
f 352/22/47 358/22/47 356/22/47 351/22/47
f 346/22/205 347/22/206 354/22/206 355/22/205
f 358/22/207 359/22/207 357/22/207 356/22/207
f 353/22/1 346/22/1 355/22/1 350/22/1
f 350/22/26 351/22/26 356/22/26 357/22/26
f 353/22/15 359/22/15 358/22/15 352/22/15
f 352/22/29 351/22/29 361/22/29 362/22/29
f 347/22/15 352/22/15 362/22/15 360/22/15
f 354/22/206 347/22/206 360/22/2 363/22/2
f 351/22/26 354/22/26 363/22/26 361/22/26
f 367/22/208 366/22/208 364/22/208 365/22/208
f 371/22/1 370/22/1 366/22/1 367/22/1
f 368/22/209 371/22/209 367/22/209 365/22/209
f 370/22/210 369/22/210 364/22/210 366/22/210
f 353/22/211 352/22/211 369/22/211 370/22/211
f 347/22/212 346/22/212 371/22/212 368/22/212
f 346/22/1 353/22/1 370/22/1 371/22/1
f 352/22/47 347/22/47 368/22/47 369/22/47
f 126/21/213 128/21/213 374/21/213 372/21/213
f 134/21/214 135/21/214 381/21/214 380/21/214
f 131/21/215 132/21/215 378/21/215 377/21/215
f 128/21/1 129/21/1 375/21/1 374/21/1
f 135/21/216 127/21/216 373/21/216 381/21/216
f 132/21/217 133/21/217 379/21/217 378/21/217
f 129/21/218 130/21/218 376/21/218 375/21/218
f 127/21/219 126/21/219 372/21/219 373/21/219
f 133/21/47 134/21/47 380/21/47 379/21/47
f 130/21/220 131/21/220 377/21/220 376/21/220
f 379/21/47 380/21/47 390/21/47 389/21/47
f 376/21/221 377/21/221 387/21/221 386/21/221
f 372/21/222 374/21/222 384/21/222 382/21/222
f 380/21/223 381/21/223 391/21/223 390/21/223
f 377/21/224 378/21/224 388/21/224 387/21/224
f 374/21/1 375/21/1 385/21/1 384/21/1
f 381/21/225 373/21/225 383/21/225 391/21/225
f 378/21/226 379/21/226 389/21/226 388/21/226
f 375/21/227 376/21/227 386/21/227 385/21/227
f 373/21/228 372/21/228 382/21/228 383/21/228
f 382/21/229 384/21/229 385/21/229 386/21/229 387/21/229 388/21/229 389/21/229 390/21/229 391/21/229 383/21/229
f 528/21/180 511/21/180 512/21/180 527/21/180
f 531/21/179 508/21/179 509/21/179 530/21/179
f 533/21/186 506/21/186 505/21/186 534/21/186
f 527/21/1 512/21/1 513/21/1 526/21/1
f 530/21/185 509/21/185 510/21/185 529/21/185
f 534/21/184 505/21/184 507/21/184 532/21/184
f 526/21/183 513/21/183 514/21/183 525/21/183
f 529/21/182 510/21/182 511/21/182 528/21/182
f 532/21/47 507/21/47 508/21/47 531/21/47
f 525/21/181 514/21/181 506/21/181 533/21/181
f 500/21/195 529/21/195 528/21/195 501/21/195
f 503/21/193 526/21/193 525/21/193 504/21/193
f 502/21/197 522/21/197 521/21/197 501/21/197
f 503/21/1 523/21/1 522/21/1 502/21/1
f 495/21/194 515/21/194 516/21/194 496/21/194
f 504/21/192 524/21/192 523/21/192 503/21/192
f 497/21/191 517/21/191 515/21/191 495/21/191
f 495/21/188 534/21/188 532/21/188 497/21/188
f 496/21/190 516/21/190 524/21/190 504/21/190
f 498/21/47 518/21/47 517/21/47 497/21/47
f 499/21/187 530/21/187 529/21/187 500/21/187
f 502/21/204 527/21/204 526/21/204 503/21/204
f 499/21/189 519/21/189 518/21/189 498/21/189
f 496/21/202 533/21/202 534/21/202 495/21/202
f 498/21/201 531/21/201 530/21/201 499/21/201
f 500/21/203 520/21/203 519/21/203 499/21/203
f 501/21/199 528/21/199 527/21/199 502/21/199
f 504/21/198 525/21/198 533/21/198 496/21/198
f 501/21/200 521/21/200 520/21/200 500/21/200
f 497/21/196 532/21/196 531/21/196 498/21/196
f 704/22/47 702/22/47 695/22/47 698/22/47
f 700/22/26 695/22/26 696/22/26 699/22/26
f 710/22/1 705/22/1 706/22/1 709/22/1
f 697/22/1 696/22/1 701/22/1 703/22/1
f 692/22/230 700/22/230 699/22/231 693/22/231
f 703/22/232 701/22/232 702/22/232 704/22/232
f 698/22/47 695/22/47 700/22/47 692/22/47
f 695/22/26 702/22/26 701/22/26 696/22/26
f 698/22/15 697/22/15 703/22/15 704/22/15
f 697/22/29 362/22/29 361/22/29 696/22/29
f 693/22/15 360/22/15 362/22/15 697/22/15
f 699/22/231 363/22/2 360/22/2 693/22/231
f 696/22/26 361/22/26 363/22/26 699/22/26
f 708/22/208 706/22/208 705/22/208 707/22/208
f 712/22/47 708/22/47 707/22/47 711/22/47
f 709/22/233 706/22/233 708/22/233 712/22/233
f 711/22/234 707/22/234 705/22/234 710/22/234
f 698/22/235 711/22/235 710/22/235 697/22/235
f 693/22/236 709/22/236 712/22/236 692/22/236
f 692/22/47 712/22/47 711/22/47 698/22/47
f 697/22/1 710/22/1 709/22/1 693/22/1
f 505/21/214 713/21/214 715/21/214 507/21/214
f 513/21/213 721/21/213 722/21/213 514/21/213
f 510/21/220 718/21/220 719/21/220 511/21/220
f 507/21/47 715/21/47 716/21/47 508/21/47
f 514/21/219 722/21/219 714/21/219 506/21/219
f 511/21/218 719/21/218 720/21/218 512/21/218
f 508/21/217 716/21/217 717/21/217 509/21/217
f 506/21/216 714/21/216 713/21/216 505/21/216
f 512/21/1 720/21/1 721/21/1 513/21/1
f 509/21/215 717/21/215 718/21/215 510/21/215
f 720/21/1 730/21/1 731/21/1 721/21/1
f 717/21/224 727/21/224 728/21/224 718/21/224
f 713/21/223 723/21/223 725/21/223 715/21/223
f 721/21/222 731/21/222 732/21/222 722/21/222
f 718/21/221 728/21/221 729/21/221 719/21/221
f 715/21/47 725/21/47 726/21/47 716/21/47
f 722/21/228 732/21/228 724/21/228 714/21/228
f 719/21/227 729/21/227 730/21/227 720/21/227
f 716/21/226 726/21/226 727/21/226 717/21/226
f 714/21/225 724/21/225 723/21/225 713/21/225
f 723/21/229 724/21/229 732/21/229 731/21/229 730/21/229 729/21/229 728/21/229 727/21/229 726/21/229 725/21/229
usemtl headlights.001
f 167/23/237 166/23/237 162/23/237
f 163/23/238 167/23/238 162/23/238
f 542/23/239 539/23/239 541/23/239
f 540/23/240 539/23/240 542/23/240
usemtl rear_lights.002
f 65/24/2 176/24/2 183/24/2 187/24/2
f 179/24/2 65/24/2 187/24/2 185/24/2
f 74/24/26 76/24/26 190/24/26 189/24/26
f 186/24/15 185/24/15 187/24/5 188/24/5
f 184/24/6 188/24/5 187/24/5 183/24/6
f 184/24/1 183/24/1 189/24/1 190/24/1
f 76/24/29 177/24/29 184/24/29 190/24/29
f 71/24/241 180/24/29 186/24/29 188/24/241
f 177/24/242 71/24/242 188/24/242 184/24/242
f 176/24/2 74/24/2 189/24/2 183/24/2
f 456/24/2 558/24/2 556/24/2 551/24/2
f 179/24/2 185/24/2 558/24/2 456/24/2
f 461/24/26 560/24/26 561/24/26 463/24/26
f 186/24/15 559/24/80 558/24/80 185/24/15
f 557/24/81 556/24/81 558/24/80 559/24/80
f 557/24/47 561/24/47 560/24/47 556/24/47
f 463/24/29 561/24/29 557/24/29 552/24/29
f 459/24/243 559/24/243 186/24/29 180/24/29
f 552/24/244 557/24/244 559/24/244 459/24/244
f 551/24/2 556/24/2 560/24/2 461/24/2
