# Blender 4.5.4 LTS
# www.blender.org
mtllib TruckWheel.mtl
o Monster_Truck_wheel_rear_right
v 0.176618 -0.099140 -0.237717
v 0.157623 -0.088525 0.230356
v 0.201341 0.025720 -0.237717
v 0.179734 0.023144 0.230356
v 0.147951 0.141267 -0.237717
v 0.131985 0.126482 0.230356
v 0.036842 0.203364 -0.237717
v 0.032615 0.182018 0.230356
v -0.089548 0.188293 -0.237717
v -0.080421 0.168540 0.230356
v -0.182941 0.101811 -0.237717
v -0.163946 0.091195 0.230356
v -0.207664 -0.023050 -0.237717
v -0.186057 -0.020474 0.230356
v -0.154274 -0.138596 -0.237717
v -0.138308 -0.123812 0.230356
v -0.043164 -0.200694 -0.237717
v -0.038938 -0.179348 0.230356
v 0.083225 -0.185623 -0.237717
v 0.074098 -0.165870 0.230356
v -0.003161 0.001335 -0.237716
v 0.409628 0.050557 0.230356
v 0.464386 0.057086 0.163184
v 0.407862 -0.228379 0.163184
v 0.359724 -0.201476 0.230356
v 0.301861 0.283788 0.230356
v 0.342323 0.321256 0.163184
v 0.077585 0.409132 0.230356
v 0.088296 0.463227 0.163184
v -0.177533 0.378711 0.230356
v -0.200664 0.428771 0.163184
v -0.366048 0.204145 0.230356
v -0.414185 0.231049 0.163184
v -0.415951 -0.047887 0.230356
v -0.470709 -0.054416 0.163184
v -0.308183 -0.281118 0.230356
v -0.348645 -0.318586 0.163184
v -0.083907 -0.406462 0.230356
v -0.094619 -0.460557 0.163184
v 0.171210 -0.376041 0.230356
v 0.194341 -0.426101 0.163184
v 0.359724 -0.201476 -0.237717
v 0.407862 -0.228379 -0.170544
v 0.464386 0.057086 -0.170544
v 0.409628 0.050557 -0.237717
v 0.342323 0.321256 -0.170544
v 0.301861 0.283788 -0.237717
v 0.088296 0.463227 -0.170544
v 0.077585 0.409132 -0.237717
v -0.200664 0.428771 -0.170544
v -0.177533 0.378711 -0.237717
v -0.414185 0.231049 -0.170544
v -0.366048 0.204145 -0.237717
v -0.470709 -0.054416 -0.170544
v -0.415951 -0.047887 -0.237717
v -0.348645 -0.318586 -0.170544
v -0.308183 -0.281118 -0.237717
v -0.094619 -0.460557 -0.170544
v -0.083907 -0.406462 -0.237717
v 0.194341 -0.426101 -0.170544
v 0.171210 -0.376041 -0.237717
v 0.202325 0.025837 0.230356
v 0.177483 -0.099624 0.230356
v 0.148678 0.141940 0.230356
v 0.037034 0.204335 0.230356
v -0.089963 0.189192 0.230356
v -0.183806 0.102294 0.230356
v -0.208647 -0.023168 0.230356
v -0.155001 -0.139269 0.230356
v -0.043357 -0.201666 0.230356
v 0.083641 -0.186522 0.230356
v 0.157623 -0.088524 -0.096977
v 0.179734 0.023144 -0.096977
v 0.131985 0.126482 -0.096977
v 0.032615 0.182018 -0.096977
v -0.080421 0.168540 -0.096977
v -0.163946 0.091195 -0.096977
v -0.186057 -0.020474 -0.096977
v -0.138308 -0.123812 -0.096977
v -0.038938 -0.179348 -0.096977
v 0.074098 -0.165870 -0.096977
v 0.484689 -0.072246 0.016862
v 0.492641 -0.031375 0.004004
v 0.441116 -0.063696 0.017023
v 0.449067 -0.022824 0.004165
v 0.497321 -0.011663 0.156014
v 0.505272 0.029209 0.143156
v 0.453748 -0.003113 0.156176
v 0.461699 0.037758 0.143318
v 0.495771 -0.013098 -0.168717
v 0.504053 0.028767 -0.156007
v 0.451299 -0.004372 -0.168552
v 0.459582 0.037493 -0.155842
v 0.484727 -0.073265 -0.026091
v 0.493009 -0.031400 -0.013382
v 0.440255 -0.064539 -0.025927
v 0.448538 -0.022673 -0.013217
v 0.452289 -0.212646 0.016862
v 0.460241 -0.171775 0.004004
v 0.408716 -0.204096 0.017023
v 0.416667 -0.163225 0.004165
v 0.464921 -0.152063 0.156014
v 0.472872 -0.111191 0.143156
v 0.421348 -0.143513 0.156176
v 0.429299 -0.102642 0.143318
v 0.463371 -0.153498 -0.168717
v 0.471653 -0.111633 -0.156007
v 0.418899 -0.144772 -0.168552
v 0.427182 -0.102907 -0.155842
v 0.452327 -0.213665 -0.026091
v 0.460609 -0.171800 -0.013382
v 0.407855 -0.204939 -0.025927
v 0.416138 -0.163073 -0.013217
v -0.217485 -0.438928 0.017932
v -0.181448 -0.459068 0.004305
v -0.195822 -0.400166 0.017932
v -0.159784 -0.420306 0.004305
v -0.160235 -0.470923 0.155903
v -0.124198 -0.491064 0.142276
v -0.138572 -0.432161 0.155903
v -0.102535 -0.452302 0.142276
v -0.169522 -0.466258 -0.168716
v -0.131981 -0.487239 -0.156802
v -0.147411 -0.426697 -0.168716
v -0.109871 -0.447678 -0.156802
v -0.219576 -0.438283 -0.024990
v -0.182036 -0.459264 -0.013076
v -0.197467 -0.398722 -0.024990
v -0.159926 -0.419703 -0.013076
v -0.340843 -0.364533 0.020587
v -0.304806 -0.384674 0.006959
v -0.319180 -0.325771 0.020587
v -0.283143 -0.345912 0.006959
v -0.283593 -0.396529 0.158558
v -0.247556 -0.416669 0.144931
v -0.261930 -0.357767 0.158558
v -0.225893 -0.377908 0.144931
v -0.292880 -0.391863 -0.166062
v -0.255339 -0.412844 -0.154147
v -0.270770 -0.352302 -0.166062
v -0.233229 -0.373283 -0.154147
v -0.342935 -0.363889 -0.022336
v -0.305394 -0.384869 -0.010421
v -0.320825 -0.324328 -0.022336
v -0.283284 -0.345308 -0.010421
v -0.347818 0.342371 0.025936
v -0.378503 0.314485 0.012692
v -0.317712 0.309742 0.025203
v -0.348397 0.281857 0.011960
v -0.392435 0.296721 0.164476
v -0.423120 0.268836 0.151232
v -0.362328 0.264093 0.163743
v -0.393014 0.236208 0.150500
v -0.393517 0.306844 -0.160149
v -0.424807 0.277575 -0.147840
v -0.362790 0.273543 -0.160897
v -0.394080 0.244274 -0.148588
v -0.347667 0.344522 -0.016988
v -0.378956 0.315252 -0.004680
v -0.316940 0.311221 -0.017736
v -0.348229 0.281951 -0.005427
v -0.238738 0.436504 0.027183
v -0.269423 0.408619 0.013940
v -0.208631 0.403876 0.026450
v -0.239317 0.375991 0.013206
v -0.283354 0.390855 0.165723
v -0.314040 0.362969 0.152480
v -0.253248 0.358227 0.164991
v -0.283933 0.330341 0.151747
v -0.284437 0.400978 -0.158901
v -0.315727 0.371708 -0.146593
v -0.253710 0.367677 -0.159649
v -0.285000 0.338407 -0.147341
v -0.238587 0.438655 -0.015741
v -0.269876 0.409385 -0.003432
v -0.207859 0.405354 -0.016489
v -0.239149 0.376085 -0.004180
v 0.435335 0.223581 0.019165
v 0.418024 0.261520 0.006452
v 0.394959 0.205102 0.019049
v 0.377647 0.243041 0.006336
v 0.409398 0.278995 0.158533
v 0.392086 0.316934 0.145820
v 0.369021 0.260515 0.158417
v 0.351710 0.298454 0.145704
v 0.410954 0.279626 -0.166200
v 0.393176 0.318352 -0.153341
v 0.369744 0.260765 -0.166318
v 0.351967 0.299492 -0.153459
v 0.436221 0.223132 -0.023788
v 0.418444 0.261860 -0.010930
v 0.395012 0.204272 -0.023907
v 0.377235 0.242998 -0.011047
v 0.490942 0.090655 0.018632
v 0.473630 0.128593 0.005919
v 0.450565 0.072175 0.018516
v 0.433254 0.110114 0.005804
v 0.465004 0.146068 0.158000
v 0.447693 0.184007 0.145287
v 0.424628 0.127589 0.157884
v 0.407317 0.165527 0.145171
v 0.466560 0.146699 -0.166733
v 0.448782 0.185426 -0.153874
v 0.425351 0.127839 -0.166851
v 0.407574 0.166565 -0.153991
v 0.491828 0.090206 -0.024322
v 0.474050 0.128933 -0.011462
v 0.450619 0.071345 -0.024440
v 0.432841 0.110072 -0.011580
v 0.079027 -0.483894 0.014642
v 0.120128 -0.479112 0.001216
v 0.074004 -0.439775 0.014876
v 0.115105 -0.434994 0.001449
v 0.143349 -0.477625 0.152927
v 0.184450 -0.472843 0.139500
v 0.138326 -0.433507 0.153160
v 0.179427 -0.428724 0.139734
v 0.135062 -0.476554 -0.171734
v 0.177718 -0.471789 -0.159611
v 0.129935 -0.431525 -0.171496
v 0.172592 -0.426761 -0.159373
v 0.077214 -0.484234 -0.028292
v 0.119870 -0.479470 -0.016168
v 0.072087 -0.439206 -0.028053
v 0.114744 -0.434441 -0.015930
v -0.064578 -0.495469 0.016623
v -0.023477 -0.490688 0.003196
v -0.069601 -0.451351 0.016856
v -0.028500 -0.446569 0.003430
v -0.000255 -0.489201 0.154907
v 0.040846 -0.484419 0.141480
v -0.005279 -0.445082 0.155141
v 0.035822 -0.440300 0.141714
v -0.008543 -0.488129 -0.169754
v 0.034114 -0.483365 -0.157631
v -0.013670 -0.443101 -0.169515
v 0.028987 -0.438336 -0.157392
v -0.066391 -0.495810 -0.026312
v -0.023734 -0.491045 -0.014188
v -0.071518 -0.450781 -0.026073
v -0.028861 -0.446017 -0.013949
v -0.482731 0.074515 0.023496
v -0.491301 0.034075 0.009982
v -0.439239 0.065588 0.022896
v -0.447809 0.025148 0.009382
v -0.493174 0.010258 0.161626
v -0.501743 -0.030181 0.148113
v -0.449682 0.001331 0.161026
v -0.458251 -0.039108 0.147512
v -0.497984 0.020548 -0.162972
v -0.506392 -0.021581 -0.150941
v -0.453595 0.011437 -0.163584
v -0.462003 -0.030691 -0.151554
v -0.483602 0.076707 -0.019420
v -0.492010 0.034578 -0.007390
v -0.439213 0.067596 -0.020033
v -0.447621 0.025467 -0.008003
v -0.449077 0.214594 0.025695
v -0.457646 0.174155 0.012182
v -0.405585 0.205667 0.025095
v -0.414154 0.165228 0.011580
v -0.459519 0.150338 0.163825
v -0.468088 0.109898 0.150312
v -0.416027 0.141411 0.163224
v -0.424596 0.100971 0.149711
v -0.464329 0.160628 -0.160772
v -0.472737 0.118499 -0.148742
v -0.419940 0.151516 -0.161385
v -0.428348 0.109388 -0.149355
v -0.449947 0.216786 -0.017221
v -0.458356 0.174658 -0.005191
v -0.405559 0.207675 -0.017835
v -0.413967 0.165547 -0.005804
v 0.222634 0.435017 0.021791
v 0.186516 0.455834 0.009045
v 0.200626 0.396453 0.021359
v 0.164508 0.417270 0.008613
v 0.168389 0.463728 0.161100
v 0.132271 0.484545 0.148355
v 0.146382 0.425164 0.160668
v 0.110264 0.445981 0.147923
v 0.171261 0.467850 -0.163609
v 0.134150 0.488822 -0.150785
v 0.148800 0.428490 -0.164049
v 0.111688 0.449463 -0.151225
v 0.223876 0.435527 -0.021156
v 0.186765 0.456499 -0.008333
v 0.201416 0.396168 -0.021597
v 0.164304 0.417140 -0.008773
v 0.345354 0.359511 0.021341
v 0.309237 0.380327 0.008595
v 0.323347 0.320947 0.020908
v 0.287229 0.341764 0.008163
v 0.291110 0.388222 0.160650
v 0.254992 0.409039 0.147904
v 0.269103 0.349658 0.160218
v 0.232985 0.370475 0.147473
v 0.293982 0.392343 -0.164058
v 0.256870 0.413315 -0.151235
v 0.271521 0.352984 -0.164499
v 0.234409 0.373956 -0.151675
v 0.346597 0.360021 -0.021606
v 0.309486 0.380993 -0.008783
v 0.324136 0.320662 -0.022047
v 0.287025 0.341634 -0.009223
v 0.346087 -0.347390 0.013270
v 0.376757 -0.319415 0.000134
v 0.316265 -0.314493 0.013567
v 0.346935 -0.286518 0.000431
v 0.393824 -0.305922 0.152001
v 0.424495 -0.277947 0.138865
v 0.364002 -0.273024 0.152298
v 0.394672 -0.245049 0.139162
v 0.388446 -0.307186 -0.172703
v 0.420235 -0.278530 -0.160278
v 0.358008 -0.273610 -0.172399
v 0.389797 -0.244954 -0.159975
v 0.345074 -0.348367 -0.029676
v 0.376863 -0.319711 -0.017252
v 0.314636 -0.314791 -0.029372
v 0.346425 -0.286135 -0.016948
v 0.236205 -0.440591 0.014247
v 0.266875 -0.412616 0.001111
v 0.206382 -0.407694 0.014544
v 0.237052 -0.379719 0.001408
v 0.283942 -0.399123 0.152978
v 0.314613 -0.371148 0.139842
v 0.254120 -0.366225 0.153275
v 0.284790 -0.338250 0.140140
v 0.278563 -0.400387 -0.171725
v 0.310352 -0.371731 -0.159301
v 0.248126 -0.366811 -0.171421
v 0.279914 -0.338156 -0.158998
v 0.235192 -0.441568 -0.028699
v 0.266980 -0.412913 -0.016274
v 0.204754 -0.407992 -0.028395
v 0.236543 -0.379337 -0.015971
v -0.435997 -0.221712 0.019543
v -0.419279 -0.259441 0.005882
v -0.395464 -0.203583 0.019219
v -0.378745 -0.241312 0.005557
v -0.407826 -0.281139 0.157455
v -0.391108 -0.318868 0.143793
v -0.367293 -0.263009 0.157130
v -0.350575 -0.300738 0.143469
v -0.415760 -0.272888 -0.167141
v -0.398080 -0.312108 -0.155262
v -0.374391 -0.254384 -0.167472
v -0.356712 -0.293603 -0.155593
v -0.437721 -0.220083 -0.023373
v -0.420042 -0.259303 -0.011494
v -0.396353 -0.201579 -0.023704
v -0.378673 -0.240799 -0.011825
v -0.490411 -0.088332 0.022282
v -0.473692 -0.126061 0.008621
v -0.449878 -0.070202 0.021958
v -0.433159 -0.107931 0.008296
v -0.462241 -0.147759 0.160194
v -0.445522 -0.185488 0.146532
v -0.421708 -0.129629 0.159869
v -0.404989 -0.167358 0.146208
v -0.470174 -0.139507 -0.164402
v -0.452495 -0.178727 -0.152523
v -0.428805 -0.121004 -0.164733
v -0.411126 -0.160223 -0.152854
v -0.492135 -0.086703 -0.020633
v -0.474456 -0.125923 -0.008754
v -0.450767 -0.068199 -0.020965
v -0.433088 -0.107419 -0.009086
v -0.073488 0.482612 0.023439
v -0.114888 0.478551 0.010494
v -0.068857 0.438456 0.022772
v -0.110257 0.434396 0.009827
v -0.135141 0.473122 0.162438
v -0.176541 0.469061 0.149493
v -0.130510 0.428966 0.161771
v -0.171911 0.424906 0.148826
v -0.133236 0.480845 -0.162230
v -0.175690 0.476119 -0.149613
v -0.128510 0.435779 -0.162911
v -0.170964 0.431053 -0.150294
v -0.072514 0.484108 -0.019497
v -0.114968 0.479381 -0.006879
v -0.067788 0.439042 -0.020178
v -0.110242 0.434316 -0.007560
v 0.070235 0.492894 0.023656
v 0.028834 0.488833 0.010711
v 0.074866 0.448738 0.022989
v 0.033465 0.444678 0.010044
v 0.008581 0.483404 0.162655
v -0.032819 0.479343 0.149711
v 0.013212 0.439248 0.161987
v -0.028188 0.435188 0.149044
v 0.010486 0.491127 -0.162013
v -0.031967 0.486401 -0.149395
v 0.015212 0.446062 -0.162694
v -0.027241 0.441335 -0.150076
v 0.071208 0.494391 -0.019280
v 0.028754 0.489663 -0.006663
v 0.075934 0.449325 -0.019961
v 0.033481 0.444598 -0.007344
vn 0.9078 0.4195 -0.0000
vn -0.0000 -0.0000 1.0000
vn 0.9810 -0.1942 -0.0000
vn 0.6794 -0.7337 -0.0000
vn -0.1184 0.9930 -0.0000
vn -0.6794 0.7337 -0.0000
vn -0.9810 0.1942 -0.0000
vn -0.9078 -0.4195 -0.0000
vn -0.4879 -0.8729 -0.0000
vn 0.1184 -0.9930 -0.0000
vn -0.0000 -0.0000 -1.0000
vn 0.4879 0.8729 -0.0000
vn 0.7732 -0.1531 -0.6154
vn 0.7732 -0.1531 0.6154
vn 0.7155 0.3306 -0.6154
vn 0.7155 0.3306 0.6154
vn 0.3845 0.6880 -0.6154
vn 0.3845 0.6880 0.6154
vn -0.0933 0.7827 -0.6154
vn -0.0933 0.7827 0.6154
vn -0.5355 0.5783 -0.6154
vn -0.5355 0.5783 0.6154
vn -0.7732 0.1531 -0.6154
vn -0.7732 0.1531 0.6154
vn -0.7155 -0.3306 -0.6154
vn -0.7155 -0.3306 0.6154
vn -0.3845 -0.6880 -0.6154
vn -0.3845 -0.6880 0.6154
vn 0.0933 -0.7827 -0.6154
vn 0.0933 -0.7827 0.6154
vn 0.5355 -0.5783 -0.6154
vn 0.5355 -0.5783 0.6154
vn -0.0602 -0.2889 -0.9555
vn 0.0602 0.2889 0.9555
vn 0.9813 -0.1925 -0.0052
vn -0.1745 -0.8969 0.4063
vn 0.1745 0.8969 -0.4063
vn 0.0515 0.2808 -0.9584
vn -0.0515 -0.2808 0.9584
vn -0.1784 -0.9016 -0.3941
vn 0.1784 0.9016 0.3941
vn -0.2736 0.1529 -0.9496
vn 0.2736 -0.1529 0.9496
vn -0.7884 0.4406 0.4293
vn 0.7884 -0.4406 -0.4293
vn 0.2331 -0.1303 -0.9637
vn -0.2331 0.1303 0.9637
vn -0.8108 0.4531 -0.3706
vn 0.8108 -0.4531 0.3706
vn 0.2130 0.2179 -0.9524
vn -0.2130 -0.2179 0.9524
vn -0.6779 0.7347 0.0238
vn 0.6724 0.6110 0.4179
vn -0.6724 -0.6110 -0.4179
vn -0.2137 -0.1756 -0.9610
vn 0.2137 0.1756 0.9610
vn 0.6748 0.6313 -0.3823
vn -0.6748 -0.6313 0.3823
vn 0.1236 -0.2641 -0.9565
vn -0.1236 0.2641 0.9565
vn 0.9093 0.4162 0.0038
vn 0.3801 -0.8330 0.4020
vn -0.3801 0.8330 -0.4020
vn -0.1180 0.2637 -0.9574
vn 0.1180 -0.2637 0.9574
vn 0.3826 -0.8335 -0.3985
vn -0.3826 0.8335 0.3985
vn -0.3072 -0.0299 -0.9512
vn 0.3072 0.0299 0.9512
vn 0.1131 -0.9936 -0.0076
vn -0.8999 -0.1047 0.4233
vn 0.8999 0.1047 -0.4233
vn 0.2695 0.0358 -0.9623
vn -0.2695 -0.0358 0.9623
vn -0.9206 -0.1028 -0.3768
vn 0.9206 0.1028 0.3768
vn 0.0499 0.3070 -0.9504
vn -0.0499 -0.3070 0.9504
vn -0.9794 0.2010 0.0195
vn 0.1876 0.8851 0.4259
vn -0.1876 -0.8851 -0.4259
vn -0.0670 -0.2616 -0.9629
vn 0.0670 0.2616 0.9629
vn 0.1815 0.9095 -0.3740
vn -0.1815 -0.9095 0.3740
vn 0.2586 -0.1369 -0.9562
vn -0.2586 0.1368 0.9562
vn 0.4956 0.8684 0.0140
vn 0.7929 -0.4570 0.4030
vn -0.7929 0.4570 -0.4029
vn -0.2456 0.1509 -0.9576
vn 0.2456 -0.1509 0.9576
vn 0.7989 -0.4514 -0.3975
vn -0.7989 0.4515 0.3975
vn -0.2586 0.1369 0.9562
vn 0.7929 -0.4570 0.4029
vn -0.7989 0.4514 0.3975
vn -0.2278 -0.1979 -0.9534
vn 0.2278 0.1979 0.9534
vn 0.6716 -0.7408 -0.0097
vn -0.6723 -0.6132 0.4146
vn 0.6723 0.6132 -0.4146
vn 0.2022 0.1920 -0.9603
vn -0.2022 -0.1920 0.9603
vn -0.6853 -0.6177 -0.3857
vn 0.6853 0.6178 0.3857
vn -0.6723 -0.6132 0.4147
vn 0.6716 -0.7409 -0.0097
vn -0.6853 -0.6178 -0.3857
vn -0.1347 0.2841 -0.9493
vn 0.1347 -0.2841 0.9493
vn -0.9128 -0.4083 0.0105
vn -0.3657 0.8253 0.4303
vn 0.3657 -0.8253 -0.4303
vn 0.1023 -0.2459 -0.9639
vn -0.1022 0.2458 0.9639
vn -0.3819 0.8471 -0.3695
vn 0.3819 -0.8471 0.3695
vn -0.1023 0.2459 0.9639
vn 0.2941 0.0453 -0.9547
vn -0.2941 -0.0453 0.9547
vn -0.1043 0.9943 0.0216
vn 0.9082 0.0891 0.4089
vn -0.9082 -0.0891 -0.4089
vn -0.2833 -0.0152 -0.9589
vn 0.2833 0.0152 0.9589
vn 0.9146 0.1018 -0.3914
vn -0.9146 -0.1018 0.3914
vt 0.937500 0.567500
vt 0.938019 0.559059
vt 0.068272 0.174885
vt 0.062500 0.192500
s 1
usemtl tires.007
f 44/1/1 46/1/1 27/1/1 23/1/1
f 62/1/2 22/1/2 26/1/2 64/1/2
f 64/1/2 26/1/2 28/1/2 65/1/2
f 65/1/2 28/1/2 30/1/2 66/1/2
f 66/1/2 30/1/2 32/1/2 67/1/2
f 67/1/2 32/1/2 34/1/2 68/1/2
f 68/1/2 34/1/2 36/1/2 69/1/2
f 69/1/2 36/1/2 38/1/2 70/1/2
f 70/1/2 38/1/2 40/1/2 71/1/2
f 71/1/2 40/1/2 25/1/2 63/1/2
f 43/1/3 44/1/3 23/1/3 24/1/3
f 60/1/4 43/1/4 24/1/4 41/1/4
f 48/1/5 50/1/5 31/1/5 29/1/5
f 50/1/6 52/1/6 33/1/6 31/1/6
f 52/1/7 54/1/7 35/1/7 33/1/7
f 54/1/8 56/1/8 37/1/8 35/1/8
f 56/1/9 58/1/9 39/1/9 37/1/9
f 58/1/10 60/1/10 41/1/10 39/1/10
f 3/1/11 45/1/11 42/1/11 1/1/11
f 46/1/12 48/1/12 29/1/12 27/1/12
f 1/1/11 42/1/11 61/1/11 19/1/11
f 7/1/11 49/1/11 47/1/11 5/1/11
f 9/1/11 51/1/11 49/1/11 7/1/11
f 11/1/11 53/1/11 51/1/11 9/1/11
f 13/1/11 55/1/11 53/1/11 11/1/11
f 15/1/11 57/1/11 55/1/11 13/1/11
f 17/1/11 59/1/11 57/1/11 15/1/11
f 19/1/11 61/1/11 59/1/11 17/1/11
f 5/1/11 47/1/11 45/1/11 3/1/11
f 43/1/13 42/1/13 45/1/13 44/1/13
f 23/1/14 22/1/14 25/1/14 24/1/14
f 44/1/15 45/1/15 47/1/15 46/1/15
f 27/1/16 26/1/16 22/1/16 23/1/16
f 46/1/17 47/1/17 49/1/17 48/1/17
f 29/1/18 28/1/18 26/1/18 27/1/18
f 48/1/19 49/1/19 51/1/19 50/1/19
f 31/1/20 30/1/20 28/1/20 29/1/20
f 50/1/21 51/1/21 53/1/21 52/1/21
f 33/1/22 32/1/22 30/1/22 31/1/22
f 52/1/23 53/1/23 55/1/23 54/1/23
f 35/1/24 34/1/24 32/1/24 33/1/24
f 54/1/25 55/1/25 57/1/25 56/1/25
f 37/1/26 36/1/26 34/1/26 35/1/26
f 56/1/27 57/1/27 59/1/27 58/1/27
f 39/1/28 38/1/28 36/1/28 37/1/28
f 58/1/29 59/1/29 61/1/29 60/1/29
f 41/1/30 40/1/30 38/1/30 39/1/30
f 60/1/31 61/1/31 42/1/31 43/1/31
f 24/1/32 25/1/32 40/1/32 41/1/32
f 63/1/2 25/1/2 22/1/2 62/1/2
f 82/2/33 84/2/33 85/2/33 83/2/33
f 88/2/34 86/2/34 87/2/34 89/2/34
f 86/2/35 82/2/35 83/2/35 87/2/35
f 84/2/36 82/2/36 86/2/36 88/2/36
f 89/2/37 87/2/37 83/2/37 85/2/37
f 90/2/38 92/2/38 93/2/38 91/2/38
f 96/2/39 94/2/39 95/2/39 97/2/39
f 94/2/35 90/2/35 91/2/35 95/2/35
f 92/2/40 90/2/40 94/2/40 96/2/40
f 97/2/41 95/2/41 91/2/41 93/2/41
f 98/2/33 100/2/33 101/2/33 99/2/33
f 104/2/34 102/2/34 103/2/34 105/2/34
f 102/2/35 98/2/35 99/2/35 103/2/35
f 100/2/36 98/2/36 102/2/36 104/2/36
f 105/2/37 103/2/37 99/2/37 101/2/37
f 106/2/38 108/2/38 109/2/38 107/2/38
f 112/2/39 110/2/39 111/2/39 113/2/39
f 110/2/35 106/2/35 107/2/35 111/2/35
f 108/2/40 106/2/40 110/2/40 112/2/40
f 113/2/41 111/2/41 107/2/41 109/2/41
f 114/2/42 116/2/42 117/2/42 115/2/42
f 120/2/43 118/2/43 119/2/43 121/2/43
f 118/2/9 114/2/9 115/2/9 119/2/9
f 116/2/44 114/2/44 118/2/44 120/2/44
f 121/2/45 119/2/45 115/2/45 117/2/45
f 122/2/46 124/2/46 125/2/46 123/2/46
f 128/2/47 126/2/47 127/2/47 129/2/47
f 126/2/9 122/2/9 123/2/9 127/2/9
f 124/2/48 122/2/48 126/2/48 128/2/48
f 129/2/49 127/2/49 123/2/49 125/2/49
f 130/2/42 132/2/42 133/2/42 131/2/42
f 136/2/43 134/2/43 135/2/43 137/2/43
f 134/2/9 130/2/9 131/2/9 135/2/9
f 132/2/44 130/2/44 134/2/44 136/2/44
f 137/2/45 135/2/45 131/2/45 133/2/45
f 138/2/46 140/2/46 141/2/46 139/2/46
f 144/2/47 142/2/47 143/2/47 145/2/47
f 142/2/9 138/2/9 139/2/9 143/2/9
f 140/2/48 138/2/48 142/2/48 144/2/48
f 145/2/49 143/2/49 139/2/49 141/2/49
f 146/2/50 148/2/50 149/2/50 147/2/50
f 152/2/51 150/2/51 151/2/51 153/2/51
f 150/2/52 146/2/52 147/2/52 151/2/52
f 148/2/53 146/2/53 150/2/53 152/2/53
f 153/2/54 151/2/54 147/2/54 149/2/54
f 154/2/55 156/2/55 157/2/55 155/2/55
f 160/2/56 158/2/56 159/2/56 161/2/56
f 158/2/52 154/2/52 155/2/52 159/2/52
f 156/2/57 154/2/57 158/2/57 160/2/57
f 161/2/58 159/2/58 155/2/58 157/2/58
f 162/2/50 164/2/50 165/2/50 163/2/50
f 168/2/51 166/2/51 167/2/51 169/2/51
f 166/2/52 162/2/52 163/2/52 167/2/52
f 164/2/53 162/2/53 166/2/53 168/2/53
f 169/2/54 167/2/54 163/2/54 165/2/54
f 170/2/55 172/2/55 173/2/55 171/2/55
f 176/2/56 174/2/56 175/2/56 177/2/56
f 174/2/52 170/2/52 171/2/52 175/2/52
f 172/2/57 170/2/57 174/2/57 176/2/57
f 177/2/58 175/2/58 171/2/58 173/2/58
f 178/2/59 180/2/59 181/2/59 179/2/59
f 184/2/60 182/2/60 183/2/60 185/2/60
f 182/2/61 178/2/61 179/2/61 183/2/61
f 180/2/62 178/2/62 182/2/62 184/2/62
f 185/2/63 183/2/63 179/2/63 181/2/63
f 186/2/64 188/2/64 189/2/64 187/2/64
f 192/2/65 190/2/65 191/2/65 193/2/65
f 190/2/61 186/2/61 187/2/61 191/2/61
f 188/2/66 186/2/66 190/2/66 192/2/66
f 193/2/67 191/2/67 187/2/67 189/2/67
f 194/2/59 196/2/59 197/2/59 195/2/59
f 200/2/60 198/2/60 199/2/60 201/2/60
f 198/2/61 194/2/61 195/2/61 199/2/61
f 196/2/62 194/2/62 198/2/62 200/2/62
f 201/2/63 199/2/63 195/2/63 197/2/63
f 202/2/64 204/2/64 205/2/64 203/2/64
f 208/2/65 206/2/65 207/2/65 209/2/65
f 206/2/61 202/2/61 203/2/61 207/2/61
f 204/2/66 202/2/66 206/2/66 208/2/66
f 209/2/67 207/2/67 203/2/67 205/2/67
f 210/2/68 212/2/68 213/2/68 211/2/68
f 216/2/69 214/2/69 215/2/69 217/2/69
f 214/2/70 210/2/70 211/2/70 215/2/70
f 212/2/71 210/2/71 214/2/71 216/2/71
f 217/2/72 215/2/72 211/2/72 213/2/72
f 218/2/73 220/2/73 221/2/73 219/2/73
f 224/2/74 222/2/74 223/2/74 225/2/74
f 222/2/70 218/2/70 219/2/70 223/2/70
f 220/2/75 218/2/75 222/2/75 224/2/75
f 225/2/76 223/2/76 219/2/76 221/2/76
f 226/2/68 228/2/68 229/2/68 227/2/68
f 232/2/69 230/2/69 231/2/69 233/2/69
f 230/2/70 226/2/70 227/2/70 231/2/70
f 228/2/71 226/2/71 230/2/71 232/2/71
f 233/2/72 231/2/72 227/2/72 229/2/72
f 234/2/73 236/2/73 237/2/73 235/2/73
f 240/2/74 238/2/74 239/2/74 241/2/74
f 238/2/70 234/2/70 235/2/70 239/2/70
f 236/2/75 234/2/75 238/2/75 240/2/75
f 241/2/76 239/2/76 235/2/76 237/2/76
f 242/2/77 244/2/77 245/2/77 243/2/77
f 248/2/78 246/2/78 247/2/78 249/2/78
f 246/2/79 242/2/79 243/2/79 247/2/79
f 244/2/80 242/2/80 246/2/80 248/2/80
f 249/2/81 247/2/81 243/2/81 245/2/81
f 250/2/82 252/2/82 253/2/82 251/2/82
f 256/2/83 254/2/83 255/2/83 257/2/83
f 254/2/79 250/2/79 251/2/79 255/2/79
f 252/2/84 250/2/84 254/2/84 256/2/84
f 257/2/85 255/2/85 251/2/85 253/2/85
f 258/2/77 260/2/77 261/2/77 259/2/77
f 264/2/78 262/2/78 263/2/78 265/2/78
f 262/2/79 258/2/79 259/2/79 263/2/79
f 260/2/80 258/2/80 262/2/80 264/2/80
f 265/2/81 263/2/81 259/2/81 261/2/81
f 266/2/82 268/2/82 269/2/82 267/2/82
f 272/2/83 270/2/83 271/2/83 273/2/83
f 270/2/79 266/2/79 267/2/79 271/2/79
f 268/2/84 266/2/84 270/2/84 272/2/84
f 273/2/85 271/2/85 267/2/85 269/2/85
f 274/2/86 276/2/86 277/2/86 275/2/86
f 280/2/87 278/2/87 279/2/87 281/2/87
f 278/2/88 274/2/88 275/2/88 279/2/88
f 276/2/89 274/2/89 278/2/89 280/2/89
f 281/2/90 279/2/90 275/2/90 277/2/90
f 282/2/91 284/2/91 285/2/91 283/2/91
f 288/2/92 286/2/92 287/2/92 289/2/92
f 286/2/88 282/2/88 283/2/88 287/2/88
f 284/2/93 282/2/93 286/2/93 288/2/93
f 289/2/94 287/2/94 283/2/94 285/2/94
f 290/2/86 292/2/86 293/2/86 291/2/86
f 296/2/95 294/2/95 295/2/95 297/2/95
f 294/2/88 290/2/88 291/2/88 295/2/88
f 292/2/96 290/2/96 294/2/96 296/2/96
f 297/2/90 295/2/90 291/2/90 293/2/90
f 298/2/91 300/2/91 301/2/91 299/2/91
f 304/2/92 302/2/92 303/2/92 305/2/92
f 302/2/88 298/2/88 299/2/88 303/2/88
f 300/2/93 298/2/93 302/2/93 304/2/93
f 305/2/97 303/2/97 299/2/97 301/2/97
f 306/2/98 308/2/98 309/2/98 307/2/98
f 312/2/99 310/2/99 311/2/99 313/2/99
f 310/2/100 306/2/100 307/2/100 311/2/100
f 308/2/101 306/2/101 310/2/101 312/2/101
f 313/2/102 311/2/102 307/2/102 309/2/102
f 314/2/103 316/2/103 317/2/103 315/2/103
f 320/2/104 318/2/104 319/2/104 321/2/104
f 318/2/100 314/2/100 315/2/100 319/2/100
f 316/2/105 314/2/105 318/2/105 320/2/105
f 321/2/106 319/2/106 315/2/106 317/2/106
f 322/2/98 324/2/98 325/2/98 323/2/98
f 328/2/99 326/2/99 327/2/99 329/2/99
f 326/2/100 322/2/100 323/2/100 327/2/100
f 324/2/107 322/2/107 326/2/107 328/2/107
f 329/2/102 327/2/102 323/2/102 325/2/102
f 330/2/103 332/2/103 333/2/103 331/2/103
f 336/2/104 334/2/104 335/2/104 337/2/104
f 334/2/108 330/2/108 331/2/108 335/2/108
f 332/2/109 330/2/109 334/2/109 336/2/109
f 337/2/106 335/2/106 331/2/106 333/2/106
f 338/2/110 340/2/110 341/2/110 339/2/110
f 344/2/111 342/2/111 343/2/111 345/2/111
f 342/2/112 338/2/112 339/2/112 343/2/112
f 340/2/113 338/2/113 342/2/113 344/2/113
f 345/2/114 343/2/114 339/2/114 341/2/114
f 346/2/115 348/2/115 349/2/115 347/2/115
f 352/2/116 350/2/116 351/2/116 353/2/116
f 350/2/112 346/2/112 347/2/112 351/2/112
f 348/2/117 346/2/117 350/2/117 352/2/117
f 353/2/118 351/2/118 347/2/118 349/2/118
f 354/2/110 356/2/110 357/2/110 355/2/110
f 360/2/111 358/2/111 359/2/111 361/2/111
f 358/2/112 354/2/112 355/2/112 359/2/112
f 356/2/113 354/2/113 358/2/113 360/2/113
f 361/2/114 359/2/114 355/2/114 357/2/114
f 362/2/115 364/2/115 365/2/115 363/2/115
f 368/2/119 366/2/119 367/2/119 369/2/119
f 366/2/112 362/2/112 363/2/112 367/2/112
f 364/2/117 362/2/117 366/2/117 368/2/117
f 369/2/118 367/2/118 363/2/118 365/2/118
f 370/2/120 372/2/120 373/2/120 371/2/120
f 376/2/121 374/2/121 375/2/121 377/2/121
f 374/2/122 370/2/122 371/2/122 375/2/122
f 372/2/123 370/2/123 374/2/123 376/2/123
f 377/2/124 375/2/124 371/2/124 373/2/124
f 378/2/125 380/2/125 381/2/125 379/2/125
f 384/2/126 382/2/126 383/2/126 385/2/126
f 382/2/122 378/2/122 379/2/122 383/2/122
f 380/2/127 378/2/127 382/2/127 384/2/127
f 385/2/128 383/2/128 379/2/128 381/2/128
f 386/2/120 388/2/120 389/2/120 387/2/120
f 392/2/121 390/2/121 391/2/121 393/2/121
f 390/2/122 386/2/122 387/2/122 391/2/122
f 388/2/123 386/2/123 390/2/123 392/2/123
f 393/2/124 391/2/124 387/2/124 389/2/124
f 394/2/125 396/2/125 397/2/125 395/2/125
f 400/2/126 398/2/126 399/2/126 401/2/126
f 398/2/122 394/2/122 395/2/122 399/2/122
f 396/2/127 394/2/127 398/2/127 400/2/127
f 401/2/128 399/2/128 395/2/128 397/2/128
usemtl wheels.007
f 9/3/11 21/3/11 11/3/11
f 7/3/11 21/3/11 9/3/11
f 5/3/11 21/3/11 7/3/11
f 19/3/11 21/3/11 1/3/11
f 11/3/11 21/3/11 13/3/11
f 13/3/11 21/3/11 15/3/11
f 15/3/11 21/3/11 17/3/11
f 1/3/11 21/3/11 3/3/11
f 17/3/11 21/3/11 19/3/11
f 3/3/11 21/3/11 5/3/11
f 14/4/3 78/4/3 77/4/3 12/4/3
f 2/4/2 63/4/2 62/4/2 4/4/2
f 4/4/2 62/4/2 64/4/2 6/4/2
f 6/4/2 64/4/2 65/4/2 8/4/2
f 8/4/2 65/4/2 66/4/2 10/4/2
f 10/4/2 66/4/2 67/4/2 12/4/2
f 12/4/2 67/4/2 68/4/2 14/4/2
f 14/4/2 68/4/2 69/4/2 16/4/2
f 16/4/2 69/4/2 70/4/2 18/4/2
f 18/4/2 70/4/2 71/4/2 20/4/2
f 20/4/2 71/4/2 63/4/2 2/4/2
f 73/4/2 74/4/2 75/4/2 76/4/2 77/4/2 78/4/2 79/4/2 80/4/2 81/4/2 72/4/2
f 8/4/9 75/4/9 74/4/9 6/4/9
f 2/4/6 72/4/6 81/4/6 20/4/6
f 16/4/1 79/4/1 78/4/1 14/4/1
f 10/4/10 76/4/10 75/4/10 8/4/10
f 4/4/7 73/4/7 72/4/7 2/4/7
f 18/4/12 80/4/12 79/4/12 16/4/12
f 12/4/4 77/4/4 76/4/4 10/4/4
f 6/4/8 74/4/8 73/4/8 4/4/8
f 20/4/5 81/4/5 80/4/5 18/4/5
